<?xml version="1.0" encoding="UTF-8"?>
<svg id="Layer_1" data-name="Layer 1" xmlns="http://www.w3.org/2000/svg" viewBox="0 0 1080 1080">
  <path d="m1036.41,694.56c-5.98,8.91-13.61,10.6-24.16,8.11-57.36-13.5-114.91-26.17-172.28-39.62-5.44-1.28-11.77-4.89-14.57-9.37-2.18-3.48-1.36-11.9,1.49-14.68,3.62-3.53,11.09-5.79,16.12-4.77,30.92,6.26,61.62,13.6,92.4,20.59,23.51,5.34,47.01,10.7,71.76,16.33,0-22.13-1.6-43.47.46-64.44,1.95-19.89-5.44-29.52-22.87-38.88-103.87-55.77-206.93-113.06-310.26-169.84-3.07-1.69-6.18-3.29-11.03-5.86,4.84,67.14,3.21,132.85-5.13,199.31,20.59,4.76,40.54,9.41,60.51,13.99,20.09,4.61,40.21,9.06,60.28,13.75,11.43,2.67,16.6,10,13.92,19.15-2.53,8.62-9.74,11.96-21.27,9.37-23.25-5.21-46.46-10.63-69.68-15.94-15.65-3.58-31.31-7.13-47.86-10.91-2.54,13.15-4.37,25.84-7.51,38.19-6.58,25.88-13.56,51.67-21.04,77.31-1.77,6.08-.8,9.12,4.21,12.72,27.5,19.73,54.62,40.01,82.15,59.69,8.13,5.81,11.69,12.65,11.51,22.74-.48,27.41-.08,54.83-.2,82.24-.07,17.15-7.76,22.71-24.14,17.48-43.86-14.01-87.67-28.13-131.51-42.19-3.6-1.15-7.23-2.2-12.61-3.84,0,14.67.01,28.03,0,41.4,0,5.16.04,10.32-.14,15.48-.31,8.73-4.99,13.84-13.57,14.77-7.86.85-14.55-5.15-15.36-14.07-.64-7.04-.28-14.18-.29-21.27-.03-11.58,0-23.15,0-36.05-4.59,1.3-8.21,2.2-11.75,3.34-43.83,14.07-87.64,28.22-131.48,42.25-17.34,5.55-25.02-.16-25.07-18.58-.07-27.09.18-54.19-.13-81.28-.11-9.6,3.37-16.32,11.23-21.96,29.6-21.23,58.87-42.91,87.76-64.04-10.27-41.18-20.44-81.93-30.86-123.71-19.64,4.4-40.25,8.96-60.83,13.65-98.9,22.53-197.79,45.1-296.68,67.63-14.96,3.41-22.27-2.21-22.32-17.46-.11-36.45.13-72.89-.15-109.34-.07-9.25,3.76-14.88,11.74-19.16,24.14-12.93,47.88-26.58,72.11-39.33,6.21-3.27,7.86-7.16,7.67-13.63-.4-13.21-.48-26.46,0-39.66.81-22.58,14.92-40.01,35.05-44.13,19.91-4.08,40.53,6.04,48.85,24.57,2.6,5.79,3.67,12.26,5.44,18.43,10-2.23,14.77-7.57,13.82-18.88-1.03-12.15-.67-24.53.38-36.71,2.01-23.45,18.24-39.21,41.17-41.17,20.51-1.76,39.6,12.77,45.26,34.45.49,1.86.96,3.72,1.75,6.8,4.42-2.38,8.5-4.55,12.55-6.77,24.29-13.32,48.69-26.46,72.73-40.21,3.49-1.99,6.82-6.66,7.58-10.6,2.99-15.48,4.91-31.17,7.26-46.78.38-2.55.82-5.09,1.43-7.59,2.49-10.21,9.16-15.1,17.89-13.23,8.03,1.72,12.33,9.05,10.91,18.75-2.57,17.53-5.57,35-7.74,52.58-10.46,84.66-9.24,169.21,3.58,253.54,9.58,63.04,25.69,124.2,53.72,181.79,4.59,9.44,9.99,18.49,17.16,27.34,0-4.61-.08-9.23.02-13.84.25-11.82,5.94-18.85,15.04-18.72,8.71.13,14.04,6.86,14.3,18.22.11,4.71.02,9.43,2.23,14.86,4.86-8.78,10.1-17.38,14.52-26.38,30.29-61.66,46.64-127.37,56.23-195.01,9.86-69.6,11.15-139.5,5.37-209.42-6.24-75.48-21.01-149.2-50.45-219.45-8.31-19.83-23.45-31.05-42.49-31-19.12.05-34.71,11.15-42.1,31.28-8.76,23.85-16.74,47.99-25.03,72.02-.94,2.74-1.49,5.62-2.52,8.32-3.37,8.86-10.11,12.75-17.99,10.55-8.21-2.29-12.62-9.89-9.98-19.09,4.88-17.01,10.08-33.95,15.71-50.73,3.68-10.98,8.33-21.63,12.56-32.42,11.99-30.57,37.5-48.9,68.54-49.26,31.11-.37,56.74,17.14,69.76,47.53,24.93,58.18,39.59,119.11,47.3,181.69,1.88,15.23,7.1,24.49,21.36,31.36,25.49,12.26,49.84,26.88,75.11,40.76.99-3.76,1.71-6.87,2.63-9.93,5.81-19.49,25.34-33.16,44.74-31.38,21.94,2.01,38.56,17.22,40.59,38.5,1.22,12.8,1.5,25.8.74,38.63-.63,10.7,2.47,17.4,14.05,19.54.53-2.32,1.19-4.94,1.73-7.59,4.54-22.23,22.54-36.69,44.83-36,21.6.68,39.23,15.99,41.59,38.32,1.66,15.64,1.07,31.55.9,47.33-.06,5.91,1.74,9.18,7.07,12.02,23.6,12.56,47.02,25.46,70.29,38.63,5.14,2.91,9.4,7.39,14.06,11.14v127.73Zm-613.59-102.83c-8.44-66.18-9.79-131.71-5.29-198.43-3.17,1.34-5.25,2.01-7.13,3.04-109.79,60.27-219.55,120.61-329.41,180.75-5.05,2.77-6.38,6.06-6.33,11.43.24,24.82.09,49.64.13,74.46,0,2.43.4,4.86.69,8.04,116.08-26.5,231.43-52.84,347.33-79.3Zm90.71,266.33c-15.67-28.49-30.89-56.17-46.39-84.35-19.31,14.1-38.27,29.8-59.05,42.54-17.19,10.54-24.36,23.16-21.61,43.16,1.71,12.46.32,25.35.32,39.42,43.71-14.06,85.5-27.51,126.73-40.77Zm54.03.02c41.47,13.31,83.44,26.79,126.48,40.6,0-8.94.08-16.01-.02-23.07-.2-14.45,3.83-31.05-1.98-42.74-5.64-11.33-21.38-17.68-32.78-26.08-15.21-11.21-30.52-22.29-45.31-33.07-15.55,28.27-30.69,55.8-46.41,84.36ZM166.54,496.7c6.73-3.66,11.73-6.37,16.72-9.1,14.15-7.75,14.54-8.48,12.59-23.96-1.17-9.3-6.64-14.85-14.69-14.89-8.09-.04-13.99,5.45-14.49,14.84-.55,10.21-.12,20.48-.12,33.11Zm748.96.04c0-12.27.22-22.18-.07-32.09-.24-8.21-3.83-14.44-12.63-15.7-7.2-1.04-13.96,2.05-14.98,9.01-1.15,7.91-1.95,18.4,2.21,23.9,5.09,6.72,15.48,9.42,25.46,14.89Zm-645.5-56.95c7.15-3.88,13.26-7.18,19.35-10.51,9.59-5.26,12.75-15.58,7.59-25.41-3.16-6.03-8.73-9.76-14.98-7.35-4.66,1.79-10.74,6.52-11.43,10.72-1.66,10.14-.54,20.74-.54,32.56Zm542.14.13c0-11.58.42-21.5-.14-31.37-.41-7.26-5.12-11.62-12.39-12.44-7.71-.87-13.61,2.57-15.27,10.05-1.49,6.7-5.03,14.79,2.9,19.96,7.43,4.85,15.53,8.67,24.9,13.79Z"/>
  <path d="m239.28,874.45c0-25.44-.09-50.87.09-76.31.03-4.09-.11-9.47,2.25-11.97,3.56-3.77,9.51-7.94,13.96-7.46,4.45.48,8.89,6.01,12.17,10.23,1.64,2.1.88,6.22.88,9.43.04,50.87.04,101.74,0,152.62,0,3.21.81,7.31-.81,9.44-3.21,4.23-7.7,10-11.95,10.25-4.79.28-10.78-3.98-14.54-7.9-2.33-2.43-1.95-7.9-1.98-12.02-.15-25.43-.08-50.87-.08-76.31Z"/>
  <path d="m841.51,875.58c0,25.76.08,51.51-.03,77.27-.05,12.38-5.15,18.68-14.57,18.63-9.37-.05-14.71-6.57-14.73-18.74-.08-52.16-.1-104.31.01-156.47.03-11.76,6.11-18.68,15.3-18.33,8.45.32,13.89,6.74,13.95,17.47.17,26.72.06,53.44.06,80.17Z"/>
  <path d="m150.92,813.02c0-18.7-.29-37.42.1-56.11.28-13.1,10.2-21.09,19.84-15.56,4.44,2.55,9.05,9.29,9.14,14.21.75,38.36.62,76.75.27,115.12-.09,10.06-6.36,15.7-14.92,15.56-8.49-.15-14.09-5.84-14.3-16.13-.38-19.02-.11-38.05-.14-57.08Z"/>
  <path d="m930.09,813.61c0,18.38.1,36.77-.04,55.15-.08,11.16-5.79,17.67-14.86,17.5-8.73-.16-14.23-6.45-14.27-17.15-.12-37.41-.12-74.83,0-112.24.04-10.52,5.85-17.12,14.4-17.23,8.9-.11,14.65,6.65,14.73,17.85.13,18.71.04,37.41.03,56.12Z"/>
  <path d="m540.51,206.79c16.61.38,30.71,5.84,42.64,16.7,7.03,6.4,8.19,14.03,3.28,20.56-5.19,6.91-13.26,7.75-21.32,2.21-20.03-13.76-29.32-13.78-48.91-.11-7.59,5.3-15.71,4.86-20.85-1.13-5.39-6.29-4.42-15.01,2.57-21.44,12.16-11.18,26.6-16.6,42.58-16.79Z"/>
</svg>