<svg xmlns="http://www.w3.org/2000/svg" width="85.961" height="57.409" viewBox="0 0 85.961 57.409">
  <g id="Group_39226" data-name="Group 39226" transform="translate(1.5 1.5)">
    <path id="Path_103" data-name="Path 103" d="M784.151,392.34v7.074a45.083,45.083,0,0,1-1.346,10.934l-2.262,9.045v1.8" transform="translate(-701.19 -390.535)" fill="none" stroke="#505050" stroke-width="3"/>
    <line id="Line_43" data-name="Line 43" x2="54.105" transform="translate(14.428 19.839)" fill="none" stroke="#505050" stroke-width="3"/>
    <line id="Line_44" data-name="Line 44" y2="34.267" transform="translate(41.481 19.839)" fill="none" stroke="#505050" stroke-width="3"/>
    <line id="Line_45" data-name="Line 45" x2="18.035" transform="translate(32.463 54.106)" fill="none" stroke="#505050" stroke-width="3"/>
    <path id="Path_104" data-name="Path 104" d="M770.822,407.073c3.606-3.606,3.606-10.82,3.606-10.82H760s0,7.214,3.608,10.82" transform="translate(-718.519 -387.234)" fill="none" stroke="#505050" stroke-width="3"/>
    <path id="Path_105" data-name="Path 105" d="M768.051,400.378a85.37,85.37,0,0,0,.507-9.017H754.13s0,13.827,3.608,19.839" transform="translate(-723.471 -391.361)" fill="none" stroke="#505050" stroke-width="3"/>
    <path id="Rectangle_6957" data-name="Rectangle 6957" d="M.29,0H23.3a.145.145,0,0,1,.145.145V7.069a.145.145,0,0,1-.145.145H.145A.145.145,0,0,1,0,7.069V.29A.29.29,0,0,1,.29,0Z" transform="translate(55.909 28.857)" fill="none" stroke="#505050" stroke-width="3"/>
    <path id="Path_106" data-name="Path 106" d="M783.173,430.764v-1.108a50.408,50.408,0,0,0-3.608-18.729" transform="translate(-702.014 -374.855)" fill="none" stroke="#505050" stroke-width="3"/>
    <path id="Path_107" data-name="Path 107" d="M772.412,410.927a50.4,50.4,0,0,0-3.608,18.729v1.108" transform="translate(-711.092 -374.855)" fill="none" stroke="#505050" stroke-width="3"/>
    <path id="Path_108" data-name="Path 108" d="M738.478,430.764v-1.108a50.411,50.411,0,0,1,3.608-18.729" transform="translate(-736.675 -374.855)" fill="none" stroke="#505050" stroke-width="3"/>
    <path id="Path_109" data-name="Path 109" d="M749.239,410.927a50.41,50.41,0,0,1,3.608,18.729v1.108" transform="translate(-727.597 -374.855)" fill="none" stroke="#505050" stroke-width="3"/>
    <path id="Path_110" data-name="Path 110" d="M737.5,392.34v7.074a45.083,45.083,0,0,0,1.346,10.934l2.262,9.045v1.8" transform="translate(-737.5 -390.535)" fill="none" stroke="#505050" stroke-width="3"/>
    <path id="Rectangle_6958" data-name="Rectangle 6958" d="M.145,0H23.3a.145.145,0,0,1,.145.145V7.069a.145.145,0,0,1-.145.145H.29A.29.29,0,0,1,0,6.924V.145A.145.145,0,0,1,.145,0Z" transform="translate(27.053 36.071) rotate(180)" fill="none" stroke="#505050" stroke-width="3"/>
  </g>
</svg>
