<svg xmlns="http://www.w3.org/2000/svg" width="81.64" height="77.519" viewBox="0 0 81.64 77.519">
  <g id="Group_39195" data-name="Group 39195" transform="translate(1.5 1.5)">
    <line id="Line_32" data-name="Line 32" y2="7.864" transform="translate(73.397 68.155)" fill="none" stroke="#505050" stroke-width="3"/>
    <line id="Line_33" data-name="Line 33" y2="7.864" transform="translate(5.243 68.155)" fill="none" stroke="#505050" stroke-width="3"/>
    <path id="Path_92" data-name="Path 92" d="M739.36,723.2V696.986a2.622,2.622,0,0,1,2.621-2.622h68.155a2.621,2.621,0,0,1,2.621,2.622V723.2" transform="translate(-736.739 -694.364)" fill="none" stroke="#505050" stroke-width="3"/>
    <path id="Rectangle_6955" data-name="Rectangle 6955" d="M3,0H75.64a3,3,0,0,1,3,3V34.077a0,0,0,0,1,0,0H0a0,0,0,0,1,0,0V3A3,3,0,0,1,3,0Z" transform="translate(0 34.077)" fill="none" stroke="#505050" stroke-width="3"/>
    <path id="Path_93" data-name="Path 93" d="M745.36,715.35v-5.243a5.243,5.243,0,0,1,5.243-5.243h10.485a5.243,5.243,0,0,1,5.243,5.243v5.243" transform="translate(-732.254 -686.515)" fill="none" stroke="#505050" stroke-width="3"/>
    <path id="Path_94" data-name="Path 94" d="M763.36,715.35v-5.243a5.243,5.243,0,0,1,5.243-5.243h10.485a5.242,5.242,0,0,1,5.243,5.243v5.243" transform="translate(-718.798 -686.515)" fill="none" stroke="#505050" stroke-width="3"/>
  </g>
</svg>
