<svg xmlns="http://www.w3.org/2000/svg" width="50.397" height="30.891" viewBox="0 0 50.397 30.891">
  <g id="Sunrise_Sunset_Sitout_Area_Amenities" data-name="Sunrise &amp; Sunset Sitout Area_Amenities" transform="translate(-0.06 -5.862)">
    <path id="Path_197" data-name="Path 197" d="M50.457,22.969a1.294,1.294,0,0,1-1.327.722H1.37a1.277,1.277,0,0,1-1.31-.722v-.5a1.243,1.243,0,0,1,1.361-.739H12.727c.42,0,.588,0,.638-.538a11.978,11.978,0,0,1,23.4-1.814,8.484,8.484,0,0,1,.37,1.814c0,.487.235.538.638.538H49.1a1.26,1.26,0,0,1,1.361.739ZM15.314,21.692H35.237a9.979,9.979,0,0,0-19.873,0Z" transform="translate(0 3.284)" fill="#505050"/>
    <path id="Path_198" data-name="Path 198" d="M14.477,8.715V7.035a.991.991,0,1,1,1.949,0v3.36c0,.706-.386,1.126-.958,1.126a1.008,1.008,0,0,1-.991-1.142Z" transform="translate(9.791)" fill="#505050"/>
    <path id="Path_199" data-name="Path 199" d="M9.063,16c0,.857-.538,1.31-1.159,1.159-1.243-.3-2.469-.638-3.7-1.008a.974.974,0,0,1-.672-1.21.958.958,0,0,1,1.21-.638c1.193.3,2.369.622,3.561.958C8.76,15.39,9.063,15.71,9.063,16Z" transform="translate(2.337 5.705)" fill="#505050"/>
    <path id="Path_200" data-name="Path 200" d="M28.861,15.2a.907.907,0,0,1-.706.941c-1.21.353-2.419.689-3.645,1.008a.958.958,0,0,1-1.159-.655.907.907,0,0,1,.6-1.176c1.277-.386,2.553-.739,3.83-1.042a.907.907,0,0,1,1.075.924Z" transform="translate(15.8 5.71)" fill="#505050"/>
    <path id="Path_201" data-name="Path 201" d="M5.73,10.874a1.075,1.075,0,0,1,1.478-.84,1.344,1.344,0,0,1,.353.252l2.587,2.184a.991.991,0,0,1,.252,1.5,1.008,1.008,0,0,1-1.5,0c-.874-.739-1.68-1.462-2.621-2.217a4.149,4.149,0,0,1-.554-.874Z" transform="translate(3.855 2.78)" fill="#505050"/>
    <path id="Path_202" data-name="Path 202" d="M26.419,10.829a5.292,5.292,0,0,1-.588.857q-1.31,1.159-2.671,2.268a.974.974,0,1,1-1.277-1.462c.907-.79,1.814-1.546,2.738-2.318a.874.874,0,0,1,1.092-.118A4.5,4.5,0,0,1,26.419,10.829Z" transform="translate(14.564 2.757)" fill="#505050"/>
    <path id="Path_203" data-name="Path 203" d="M12.076,12.3c-.151-.118-.5-.269-.655-.538-.571-1.126-1.109-2.285-1.68-3.461a.974.974,0,0,1,.487-1.26.958.958,0,0,1,1.294.487C12.059,8.667,12.6,9.81,13.1,10.969,13.42,11.607,12.949,12.262,12.076,12.3Z" transform="translate(6.53 0.736)" fill="#505050"/>
    <path id="Path_204" data-name="Path 204" d="M21.865,7.941a4.435,4.435,0,0,1-.168.521c-.47,1.025-.941,2.049-1.428,3.074a.991.991,0,1,1-1.781-.806c.487-1.058.974-2.117,1.478-3.175a.974.974,0,0,1,1.176-.538A1.008,1.008,0,0,1,21.865,7.941Z" transform="translate(12.415 0.757)" fill="#505050"/>
    <path id="Path_205" data-name="Path 205" d="M23.2,22.119H4.451c-.907,0-1.361-.319-1.361-.974s.454-.974,1.361-.974H42.417a.924.924,0,0,1,.874,1.008.958.958,0,0,1-.958.924,4.7,4.7,0,0,1-.487,0Z" transform="translate(2.06 9.728)" fill="#505050"/>
    <path id="Path_206" data-name="Path 206" d="M20.936,25.046H7.5c-.756,0-1.226-.386-1.226-.974s.47-.974,1.243-.974H34.627a2.251,2.251,0,0,1,.588,0,.907.907,0,0,1,.655.941.874.874,0,0,1-.672.874,3.511,3.511,0,0,1-.722,0Z" transform="translate(4.222 11.706)" fill="#505050"/>
  </g>
</svg>
