<?xml version="1.0" encoding="UTF-8"?>
<svg id="Layer_1" data-name="Layer 1" xmlns="http://www.w3.org/2000/svg" viewBox="0 0 64 64">
  <defs>
    <style>
      .cls-1 {
        fill: #fff;
      }
    </style>
  </defs>
  <rect class="cls-1" x="28.02" y="48.88" width="3.08" height="3.08"/>
  <rect class="cls-1" x="32.63" y="48.88" width="3.08" height="3.08"/>
  <rect class="cls-1" x="28.08" y="53.52" width="3.08" height="3.08"/>
  <rect class="cls-1" x="32.67" y="53.52" width="3.08" height="3.08"/>
  <rect class="cls-1" x="28.13" y="31.54" width="3.08" height="3.08"/>
  <rect class="cls-1" x="32.74" y="31.54" width="3.08" height="3.08"/>
  <rect class="cls-1" x="28.13" y="15.17" width="3.08" height="3.08"/>
  <rect class="cls-1" x="32.74" y="15.17" width="3.08" height="3.08"/>
  <path class="cls-1" d="M32.03,.48C14.4,.48,.06,14.82,.06,32.45,.06,46.26,8.82,58.42,21.89,62.78c0,0,0,0,0,0,.03,0,.06,.02,.09,.03,.04,.01,.08,.03,.11,.04h0c.17,.03,.34,.06,.34,.06v-2.01h0v-7.11h0s0,0,0,0v-4.88l9.6-9.47,9.6,9.47v11.99h0v2.08l.76-.27s0,0,0,0c12.92-4.43,21.59-16.55,21.59-30.25C64,14.82,49.66,.48,32.03,.48ZM9.75,52.74c-3.04-3.34-5.29-7.37-6.56-11.79l6.56-6.55v18.34Zm0-21.11l-7.1,7.1c-.42-2.03-.64-4.13-.64-6.27,0-.47,.01-.93,.03-1.39l7.71-8.18v8.75Zm0-11.55l-.02-.02-7.37,7.82c.91-5.92,3.55-11.27,7.39-15.52v7.73Zm10.73,40.11c-3.3-1.33-6.25-3.21-8.78-5.5v-7.12l8.78,7.15v5.47Zm0-8l-8.78-7.15v-10.98l8.78,7.41v10.72Zm0-13.28l-8.78-7.41v-15.27l8.78,8.5v14.18Zm0-16.9L11.71,13.52v-3.14c2.56-2.36,5.52-4.27,8.78-5.64V22.02Zm21.16,24.15l-9.6-9.47-9.6,9.47v-12.96l9.6-9.47,9.6,9.47v12.96Zm0-15.71l-9.6-9.47-9.6,9.47v-13.62l9.6-9.47,9.6,9.47v13.62Zm0-16.36l-9.6-9.47-9.6,9.47V4.71l1.05-1.03c2.71-.8,5.57-1.24,8.54-1.24s5.87,.44,8.59,1.25l1.03,1.02V14.09Zm12.46-1.94c3.11,3.38,5.46,7.48,6.76,12.01l-6.76-6.7v-5.31Zm-1.96,42.63c-2.48,2.23-5.36,4.07-8.55,5.39v-8.45l8.55-7.89v10.96Zm0-13.62l-8.55,7.89v-8.42l8.55-8.32v8.84Zm0-11.57l-8.55,8.32v-15.15l8.55-8.54v15.37Zm0-18.14l-8.55,8.54V4.76c3.16,1.33,6.05,3.18,8.55,5.45v1.25Zm1.96,41.39v-20.5l7.12,7.06c-1.19,5.07-3.66,9.68-7.12,13.43Zm0-23.25v-9.38l7.55,7.48c.25,1.55,.38,3.14,.38,4.76s-.12,3.13-.36,4.65l-7.57-7.51Z"/>
</svg>