<svg id="Group_39251" data-name="Group 39251" xmlns="http://www.w3.org/2000/svg" xmlns:xlink="http://www.w3.org/1999/xlink" width="59.15" height="36.183" viewBox="0 0 59.15 36.183">
  <defs>
    <clipPath id="clip-path">
      <rect id="Rectangle_7030" data-name="Rectangle 7030" width="59.15" height="36.182" fill="none" stroke="#505050" stroke-width="2"/>
    </clipPath>
  </defs>
  <line id="Line_66" data-name="Line 66" x2="19.877" transform="translate(19.637 17.112)" fill="none" stroke="#505050" stroke-linecap="round" stroke-linejoin="round" stroke-width="2"/>
  <line id="Line_67" data-name="Line 67" x2="9.116" transform="translate(25.017 13.888)" fill="none" stroke="#505050" stroke-linecap="round" stroke-linejoin="round" stroke-width="2"/>
  <g id="Group_39250" data-name="Group 39250">
    <g id="Group_39249" data-name="Group 39249" clip-path="url(#clip-path)">
      <path id="Path_211" data-name="Path 211" d="M264.925,10.7a3.7,3.7,0,1,1-4.166-3.166A3.7,3.7,0,0,1,264.925,10.7Z" transform="translate(-212.913 -6.2)" fill="none" stroke="#505050" stroke-linecap="round" stroke-linejoin="round" stroke-width="2"/>
      <path id="Path_212" data-name="Path 212" d="M267.9,62.355h0a3.8,3.8,0,0,1-4.26-3.238l-.686-5.026a3.784,3.784,0,1,1,7.5-1.023l.686,5.026A3.8,3.8,0,0,1,267.9,62.355Z" transform="translate(-217.34 -41.165)" fill="none" stroke="#505050" stroke-linecap="round" stroke-linejoin="round" stroke-width="2"/>
      <path id="Path_213" data-name="Path 213" d="M240.859,122.465s-8.123-.11-8.5,1.325-.552,10.491-.552,10.491" transform="translate(-191.622 -101.235)" fill="none" stroke="#505050" stroke-linecap="round" stroke-linejoin="round" stroke-width="2"/>
      <path id="Path_214" data-name="Path 214" d="M256.012,50.563h11.767l1.7-19.188" transform="translate(-211.634 -25.937)" fill="none" stroke="#505050" stroke-linecap="round" stroke-linejoin="round" stroke-width="2"/>
      <line id="Line_68" data-name="Line 68" y2="9.416" transform="translate(49.929 24.627)" fill="none" stroke="#505050" stroke-linecap="round" stroke-linejoin="round" stroke-width="2"/>
      <line id="Line_69" data-name="Line 69" x2="4.753" transform="translate(47.552 34.277)" fill="none" stroke="#505050" stroke-linecap="round" stroke-linejoin="round" stroke-width="2"/>
      <path id="Path_215" data-name="Path 215" d="M227.126,71.533s5.06,1.83,7.156,1.62,3.355-2.516,3.355-2.516" transform="translate(-187.755 -58.393)" fill="none" stroke="#505050" stroke-linecap="round" stroke-linejoin="round" stroke-width="2"/>
      <path id="Path_216" data-name="Path 216" d="M41.012,10.7a3.7,3.7,0,1,0,4.166-3.166A3.7,3.7,0,0,0,41.012,10.7Z" transform="translate(-33.874 -6.2)" fill="none" stroke="#505050" stroke-linecap="round" stroke-linejoin="round" stroke-width="2"/>
      <path id="Path_217" data-name="Path 217" d="M33.979,62.355h0a3.8,3.8,0,0,0,4.26-3.238l.686-5.026a3.784,3.784,0,1,0-7.5-1.023l-.686,5.026A3.8,3.8,0,0,0,33.979,62.355Z" transform="translate(-25.384 -41.165)" fill="none" stroke="#505050" stroke-linecap="round" stroke-linejoin="round" stroke-width="2"/>
      <path id="Path_218" data-name="Path 218" d="M57.19,122.465s8.123-.11,8.5,1.325.552,10.491.552,10.491" transform="translate(-47.276 -101.235)" fill="none" stroke="#505050" stroke-linecap="round" stroke-linejoin="round" stroke-width="2"/>
      <path id="Path_219" data-name="Path 219" d="M20.972,50.563H9.2L7.5,31.376" transform="translate(-6.2 -25.937)" fill="none" stroke="#505050" stroke-linecap="round" stroke-linejoin="round" stroke-width="2"/>
      <line id="Line_70" data-name="Line 70" y2="9.416" transform="translate(9.222 24.627)" fill="none" stroke="#505050" stroke-linecap="round" stroke-linejoin="round" stroke-width="2"/>
      <line id="Line_71" data-name="Line 71" x1="4.753" transform="translate(6.845 34.277)" fill="none" stroke="#505050" stroke-linecap="round" stroke-linejoin="round" stroke-width="2"/>
      <path id="Path_220" data-name="Path 220" d="M63.978,71.533s-5.06,1.83-7.156,1.62-3.355-2.516-3.355-2.516" transform="translate(-44.199 -58.393)" fill="none" stroke="#505050" stroke-linecap="round" stroke-linejoin="round" stroke-width="2"/>
      <line id="Line_72" data-name="Line 72" y1="1.13" transform="translate(26.417 12.758)" fill="none" stroke="#505050" stroke-linecap="round" stroke-linejoin="round" stroke-width="2"/>
      <line id="Line_73" data-name="Line 73" y1="1.13" transform="translate(29.575 12.758)" fill="none" stroke="#505050" stroke-linecap="round" stroke-linejoin="round" stroke-width="2"/>
      <line id="Line_74" data-name="Line 74" y1="1.13" transform="translate(32.734 12.758)" fill="none" stroke="#505050" stroke-linecap="round" stroke-linejoin="round" stroke-width="2"/>
      <line id="Line_75" data-name="Line 75" y2="17.77" transform="translate(29.575 17.112)" fill="none" stroke="#505050" stroke-linecap="round" stroke-linejoin="round" stroke-width="2"/>
      <line id="Line_76" data-name="Line 76" x2="5.585" transform="translate(26.783 34.853)" fill="none" stroke="#505050" stroke-linecap="round" stroke-linejoin="round" stroke-width="2"/>
    </g>
  </g>
</svg>
