<svg xmlns="http://www.w3.org/2000/svg" xmlns:xlink="http://www.w3.org/1999/xlink" width="450" height="450" viewBox="0 0 450 450">
  <defs>
    <clipPath id="clip-path">
      <rect id="Rectangle_7030" data-name="Rectangle 7030" width="344.024" height="210.441" fill="none" stroke="#505050" stroke-width="10"/>
    </clipPath>
    <clipPath id="clip-Artboard_8">
      <rect width="450" height="450"/>
    </clipPath>
  </defs>
  <g id="Artboard_8" data-name="Artboard – 8" clip-path="url(#clip-Artboard_8)">
    <rect width="450" height="450" fill="#fff"/>
    <g id="Group_39310" data-name="Group 39310" transform="translate(53 120)">
      <line id="Line_66" data-name="Line 66" x2="115.607" transform="translate(114.209 99.526)" fill="none" stroke="#505050" stroke-linecap="round" stroke-linejoin="round" stroke-width="10"/>
      <line id="Line_67" data-name="Line 67" x2="53.019" transform="translate(145.502 80.774)" fill="none" stroke="#505050" stroke-linecap="round" stroke-linejoin="round" stroke-width="10"/>
      <g id="Group_39250" data-name="Group 39250">
        <g id="Group_39249" data-name="Group 39249" clip-path="url(#clip-path)">
          <path id="Path_211" data-name="Path 211" d="M300.4,26.114A21.52,21.52,0,1,1,276.172,7.7,21.52,21.52,0,0,1,300.4,26.114Z" transform="translate(2.108 0.061)" fill="none" stroke="#505050" stroke-linecap="round" stroke-linejoin="round" stroke-width="10"/>
          <path id="Path_212" data-name="Path 212" d="M291.883,122.838h0a22.071,22.071,0,0,1-24.779-18.83l-3.987-29.229a22.006,22.006,0,1,1,43.608-5.95l3.988,29.23A22.072,22.072,0,0,1,291.883,122.838Z" transform="translate(2.151 0.408)" fill="none" stroke="#505050" stroke-linecap="round" stroke-linejoin="round" stroke-width="10"/>
          <path id="Path_213" data-name="Path 213" d="M284.469,122.474s-47.243-.642-49.454,7.706S231.8,191.2,231.8,191.2" transform="translate(1.897 1.002)" fill="none" stroke="#505050" stroke-linecap="round" stroke-linejoin="round" stroke-width="10"/>
          <path id="Path_214" data-name="Path 214" d="M256.012,142.974h68.441l9.915-111.6" transform="translate(2.095 0.257)" fill="none" stroke="#505050" stroke-linecap="round" stroke-linejoin="round" stroke-width="10"/>
          <line id="Line_68" data-name="Line 68" y2="54.766" transform="translate(290.391 143.231)" fill="none" stroke="#505050" stroke-linecap="round" stroke-linejoin="round" stroke-width="10"/>
          <line id="Line_69" data-name="Line 69" x2="27.644" transform="translate(276.569 199.356)" fill="none" stroke="#505050" stroke-linecap="round" stroke-linejoin="round" stroke-width="10"/>
          <path id="Path_215" data-name="Path 215" d="M227.126,75.846s29.427,10.644,41.622,9.425,19.513-14.634,19.513-14.634" transform="translate(1.859 0.578)" fill="none" stroke="#505050" stroke-linecap="round" stroke-linejoin="round" stroke-width="10"/>
          <path id="Path_216" data-name="Path 216" d="M41.178,26.114A21.52,21.52,0,1,0,65.409,7.7,21.521,21.521,0,0,0,41.178,26.114Z" transform="translate(0.335 0.061)" fill="none" stroke="#505050" stroke-linecap="round" stroke-linejoin="round" stroke-width="10"/>
          <path id="Path_217" data-name="Path 217" d="M49.738,122.838h0a22.071,22.071,0,0,0,24.779-18.83L78.5,74.779A22.006,22.006,0,1,0,34.9,68.829l-3.988,29.23A22.071,22.071,0,0,0,49.738,122.838Z" transform="translate(0.251 0.408)" fill="none" stroke="#505050" stroke-linecap="round" stroke-linejoin="round" stroke-width="10"/>
          <path id="Path_218" data-name="Path 218" d="M57.19,122.474s47.244-.642,49.454,7.706,3.211,61.016,3.211,61.016" transform="translate(0.468 1.002)" fill="none" stroke="#505050" stroke-linecap="round" stroke-linejoin="round" stroke-width="10"/>
          <path id="Path_219" data-name="Path 219" d="M85.856,142.974H17.415L7.5,31.376" transform="translate(0.061 0.257)" fill="none" stroke="#505050" stroke-linecap="round" stroke-linejoin="round" stroke-width="10"/>
          <line id="Line_70" data-name="Line 70" y2="54.766" transform="translate(53.633 143.231)" fill="none" stroke="#505050" stroke-linecap="round" stroke-linejoin="round" stroke-width="10"/>
          <line id="Line_71" data-name="Line 71" x1="27.644" transform="translate(39.811 199.356)" fill="none" stroke="#505050" stroke-linecap="round" stroke-linejoin="round" stroke-width="10"/>
          <path id="Path_220" data-name="Path 220" d="M114.6,75.846S85.175,86.491,72.98,85.271,53.467,70.637,53.467,70.637" transform="translate(0.438 0.578)" fill="none" stroke="#505050" stroke-linecap="round" stroke-linejoin="round" stroke-width="10"/>
          <line id="Line_72" data-name="Line 72" y1="6.571" transform="translate(153.642 74.202)" fill="none" stroke="#505050" stroke-linecap="round" stroke-linejoin="round" stroke-width="10"/>
          <line id="Line_73" data-name="Line 73" y1="6.571" transform="translate(172.012 74.202)" fill="none" stroke="#505050" stroke-linecap="round" stroke-linejoin="round" stroke-width="10"/>
          <line id="Line_74" data-name="Line 74" y1="6.571" transform="translate(190.382 74.202)" fill="none" stroke="#505050" stroke-linecap="round" stroke-linejoin="round" stroke-width="10"/>
          <line id="Line_75" data-name="Line 75" y2="103.354" transform="translate(172.012 99.526)" fill="none" stroke="#505050" stroke-linecap="round" stroke-linejoin="round" stroke-width="10"/>
          <line id="Line_76" data-name="Line 76" x2="32.484" transform="translate(155.77 202.712)" fill="none" stroke="#505050" stroke-linecap="round" stroke-linejoin="round" stroke-width="10"/>
        </g>
      </g>
    </g>
  </g>
</svg>
