<svg xmlns="http://www.w3.org/2000/svg" width="145.883" height="142.567" viewBox="0 0 145.883 142.567">
  <g id="Group_46" data-name="Group 46" transform="translate(-872.01 -994)">
    <rect id="Rectangle_88" data-name="Rectangle 88" width="7.027" height="7.027" transform="translate(935.812 1104.41)" fill="#fff"/>
    <rect id="Rectangle_89" data-name="Rectangle 89" width="7.027" height="7.027" transform="translate(946.331 1104.41)" fill="#fff"/>
    <rect id="Rectangle_90" data-name="Rectangle 90" width="7.027" height="7.027" transform="translate(935.95 1115.004)" fill="#fff"/>
    <rect id="Rectangle_91" data-name="Rectangle 91" width="7.027" height="7.027" transform="translate(946.413 1115.004)" fill="#fff"/>
    <rect id="Rectangle_92" data-name="Rectangle 92" width="7.027" height="7.027" transform="translate(936.068 1064.849)" fill="#fff"/>
    <rect id="Rectangle_93" data-name="Rectangle 93" width="7.027" height="7.027" transform="translate(946.587 1064.849)" fill="#fff"/>
    <rect id="Rectangle_94" data-name="Rectangle 94" width="7.027" height="7.027" transform="translate(936.068 1027.519)" fill="#fff"/>
    <rect id="Rectangle_95" data-name="Rectangle 95" width="7.027" height="7.027" transform="translate(946.587 1027.519)" fill="#fff"/>
    <path id="Path_82" data-name="Path 82" d="M944.951,994a72.948,72.948,0,0,0-23.118,142.134c.005,0,.008.011.012.013.065.021.137.043.211.064s.172.062.259.09l0-.021c.389.1.765.167.765.167v-4.592h0v-16.222l.008-.008-.008-.006v-11.14l21.911-21.6,21.91,21.6v27.347h0v4.739l1.723-.613,0-.011A72.948,72.948,0,0,0,944.951,994Zm-50.817,119.221a67.53,67.53,0,0,1-14.96-26.9l14.96-14.948Zm0-48.157-16.206,16.193a70.719,70.719,0,0,1-1.457-14.314c0-1.064.028-2.12.076-3.171l17.587-18.659Zm0-26.346-.056-.051L877.265,1056.5a68.283,68.283,0,0,1,16.869-35.416Zm24.488,91.509a67.105,67.105,0,0,1-20.027-12.551v-16.249l20.027,16.314Zm0-18.24L898.6,1095.672v-25.05l20.027,16.907Zm0-30.3L898.6,1064.783v-34.83l20.027,19.387Zm0-38.56L898.6,1023.743v-7.158a68.667,68.667,0,0,1,20.027-12.857Zm48.282,55.086-21.91-21.6-21.911,21.6v-29.578l21.911-21.6,21.91,21.6Zm0-35.842-21.91-21.6-21.911,21.6v-31.066l21.911-21.6,21.91,21.6Zm0-37.331-21.91-21.6-21.911,21.6v-21.4l2.39-2.356a68.538,68.538,0,0,1,39.079.036l2.353,2.32Zm28.436-4.421a68.461,68.461,0,0,1,15.433,27.408l-15.433-15.289Zm-4.461,97.25a67.844,67.844,0,0,1-19.514,12.286v-19.28l19.514-18Zm0-31.067-19.514,18v-19.2l19.514-18.978Zm0-26.4-19.514,18.979v-34.572l19.514-19.477Zm0-41.374-19.514,19.477v-34.748a68.662,68.662,0,0,1,19.514,12.427Zm4.461,94.429V1066.7l16.255,16.114A68.187,68.187,0,0,1,995.341,1113.463Zm0-53.043v-21.4l17.227,17.067a68.7,68.7,0,0,1,.863,10.854,69.6,69.6,0,0,1-.812,10.607Z" fill="#fff"/>
  </g>
</svg>
