<svg id="Gym" xmlns="http://www.w3.org/2000/svg" width="52.542" height="54.298" viewBox="0 0 52.542 54.298">
  <path id="Path_185" data-name="Path 185" d="M51.675,0a1.231,1.231,0,0,1,.543,1.176V6.769h.814V8.416h-.814v5.846c0,.67-.29.959-.959.977H46.372a.851.851,0,0,1-.941-.959V8.489H37.2c-.851,0-1.1-.271-1.1-1.122a4.072,4.072,0,0,0,0-.941c0-.181-.253-.326-.4-.471-.145.145-.4.29-.416.434V8.724c0,.145.163.29.29.4.814.615,1.629,1.249,2.462,1.81a1.484,1.484,0,0,1,.67,1.122c.217,2.552.38,5.1.706,7.638A16.289,16.289,0,0,1,38.7,24.9c-.09.579-.253,1.14-.362,1.7a9.973,9.973,0,0,1-1.557,3.909,15.1,15.1,0,0,0-2.371,8.6c0,.471,0,.959,0,1.43a.453.453,0,0,1,0,.127H32.725a38.968,38.968,0,0,0-1.376-7.095,11.494,11.494,0,0,0-.977.814.633.633,0,0,0-.2.489,3.4,3.4,0,0,1-6.733.67s0-.145,0-.2c.181-.941-.525-1.213-1.213-1.611a37.3,37.3,0,0,0-1.394,7.041h-1.81v-3.33a14.154,14.154,0,0,0-3-7.891,1.81,1.81,0,0,1-.344-.814q-.814-3.62-1.575-7.059a2.588,2.588,0,0,1,0-.742c.217-2.516.452-5.032.688-7.547,0-.434.109-.869.127-1.321a1.176,1.176,0,0,1,.561-.959c.851-.615,1.7-1.249,2.534-1.81a.959.959,0,0,0,.308-.6V6.679c0-.308-.127-.579-.434-.525s-.344.344-.416.543a6.606,6.606,0,0,0,0,.851c0,.851-.253,1.122-1.086,1.122H8.092v5.538c0,.778-.29,1.068-1.05,1.068H2.318c-.724,0-1.014-.29-1.014-1.032V8.489H.49V6.805H1.3V1.176A1.213,1.213,0,0,1,1.829,0H7.567a1.213,1.213,0,0,1,.525,1.176c0,1.683,0,3.348,0,5.032v.561h1.7V4.2a2.516,2.516,0,0,1,2.48-2.5h2.661A2.48,2.48,0,0,1,17.3,3.511a3.391,3.391,0,0,0,.163.742c1.81,0,2.3.615,2.552,2.552H33.5c.235-1.937.579-2.281,2.552-2.57a2.588,2.588,0,0,1,2.9-2.534h2.281a2.462,2.462,0,0,1,2.317,1.629,2.86,2.86,0,0,1,.163,1.031c0,.8,0,1.611,0,2.389h1.7V1.176A1.231,1.231,0,0,1,45.955,0ZM23.313,32.271h0a2.7,2.7,0,0,0-.253-.217A7.113,7.113,0,0,1,20,27.511c0-.163-.253-.344-.434-.416a3.2,3.2,0,0,1-2.19-3.113q0-1.113,0-2.226a17.864,17.864,0,0,1,.181-3.113,9.3,9.3,0,0,1,18.353.4c.163,1.593.109,3.2.127,4.814a3.2,3.2,0,0,1-2.281,3.258.633.633,0,0,0-.362.416A6.932,6.932,0,0,1,30.408,32l-.308.253c1.394-.778,2.715-1.647,4.018-2.516a6.407,6.407,0,0,0,1.81-1.339,6.154,6.154,0,0,0,.615-2.262,20.452,20.452,0,0,0,1.068-7.095c-.326-2.045-.416-4.145-.6-6.226A1.014,1.014,0,0,0,36.544,12c-.688-.471-1.3-1.032-2.009-1.466a1.81,1.81,0,0,1-1-1.919V8.507H19.983a2.57,2.57,0,0,0,0,.344,1.43,1.43,0,0,1-.742,1.5c-.724.471-1.376,1.05-2.1,1.538a1.484,1.484,0,0,0-.67,1.267c-.145,1.81-.326,3.62-.489,5.43a11.2,11.2,0,0,0-.09,2.733c.38,2.226.941,4.416,1.448,6.606a1.213,1.213,0,0,0,.416.615c1.81,1.176,3.493,2.335,5.249,3.493A2.678,2.678,0,0,0,23.313,32.271ZM21.757,22.063c0,1.683-.127,3.312,0,4.923a5.014,5.014,0,0,0,4.833,4.38,4.869,4.869,0,0,0,4.977-3.8,40.543,40.543,0,0,0,.362-5.556,4.832,4.832,0,0,1-2.86-1.973A11.511,11.511,0,0,1,21.757,22.063Zm-1.81-.869c.235-.688.416-.814,1.1-.833l2.081-.09A7.783,7.783,0,0,0,28.671,18.1a.833.833,0,0,1,1.412.217,7.62,7.62,0,0,0,.507.814,2.443,2.443,0,0,0,1.81,1.195,1.068,1.068,0,0,1,1.158.887h.814a7.62,7.62,0,0,0-3.62-7.366,7.24,7.24,0,0,0-8.054,0,7.566,7.566,0,0,0-3.62,7.24ZM6.354,13.556V1.81H5.54V3.439h-1.7V1.81h-.8V13.556h.814V5.14h1.7v8.416Zm43.294-3.4h-1.7V1.81h-.8V13.538h.833V11.909h1.7v1.647h.8V1.81h-.833Zm-38.171-3.4H15.73V4.29a.814.814,0,0,0-.9-.887H12.417a.851.851,0,0,0-.923.923C11.476,5.122,11.476,5.918,11.476,6.751Zm26.316,0h4.235V4.271A.851.851,0,0,0,41.1,3.4H38.716a.851.851,0,0,0-.923.887C37.775,5.086,37.793,5.9,37.793,6.751ZM25.123,33v1.919a1.81,1.81,0,0,0,1.611,1.575,1.665,1.665,0,0,0,1.719-1.412,16.073,16.073,0,0,0,0-2.081ZM20,25.23V22.95l-.145-.127c-.217.217-.579.4-.652.67a1.394,1.394,0,0,0,.742,1.738Zm13.611,0a1.412,1.412,0,0,0,.833-1.719c0-.434-.416-.543-.833-.561Zm-14.1,6.588.833,2.425.127-.344C20.743,32.579,20.743,32.579,19.512,31.819Zm14.679,0c-1.376.778-1.5,1.158-.8,2.335Z" transform="translate(-0.49)" fill="#505050"/>
  <path id="Path_186" data-name="Path 186" d="M5.813,5.665H7.5a4.38,4.38,0,0,1,0,.489c-.217,4.471-.525,8.959-.615,13.43a28.633,28.633,0,0,0,.8,7.837,14.009,14.009,0,0,0,2.208,4.941,10.66,10.66,0,0,1,1.81,4.163c.434,1.991.923,3.982,1.394,5.973a2.009,2.009,0,0,0,.127.4,1.7,1.7,0,0,0,1.231-.76,6.335,6.335,0,0,0,.959-3.475q0-.353,0-.76h1.629A6.009,6.009,0,0,1,13.6,44.651l.8,3.385H31.7l.8-3.385a4.923,4.923,0,0,1-3.385-4.471,22.535,22.535,0,0,1-.163-2.262h1.7a6.751,6.751,0,0,0,1.231,4.471,4.977,4.977,0,0,0,1,.633c.271-1.158.525-2.19.778-3.24.4-1.7.778-3.439,1.213-5.14a3.186,3.186,0,0,1,.489-1.032,17.574,17.574,0,0,0,3.113-6.787c.308-1.683.452-3.421.6-5.14a91.473,91.473,0,0,0-.38-12.67c0-1.122-.127-2.244-.2-3.4l1.7-.09c0,1.14.163,2.226.217,3.312.163,3.62.416,7.24.416,10.968a28.09,28.09,0,0,1-1.1,9.05,16.289,16.289,0,0,1-2.281,4.507,9.285,9.285,0,0,0-1.484,3.511c-.9,3.982-1.81,7.964-2.787,11.946-.2.869-.38,1.014-1.321,1.014H13.9c-.887,0-1.086-.145-1.285-1.05-1.068-4.507-2.118-9.05-3.185-13.52a2.48,2.48,0,0,0-.416-.851,17.846,17.846,0,0,1-3.258-7.692,46.245,46.245,0,0,1-.579-6.7c0-3.24.217-6.5.362-9.737C5.614,8.76,5.723,7.258,5.813,5.665Z" transform="translate(3.309 4.471)" fill="#505050"/>
  <path id="Path_187" data-name="Path 187" d="M11.284,23.424H9.691c-.181-1.1-.109-2.389-1.7-2.552V19.243C10.361,19.081,11.5,21.506,11.284,23.424Z" transform="translate(5.584 15.58)" fill="#505050"/>
  <path id="Path_188" data-name="Path 188" d="M23.513,20.851c-1.267.326-1.5.67-1.7,2.552H20.2a3.475,3.475,0,0,1,3.312-4.163Z" transform="translate(15.419 15.583)" fill="#505050"/>
</svg>
