<svg xmlns="http://www.w3.org/2000/svg" xmlns:xlink="http://www.w3.org/1999/xlink" width="450" height="450" viewBox="0 0 450 450">
  <defs>
    <clipPath id="clip-Artboard_6">
      <rect width="450" height="450"/>
    </clipPath>
  </defs>
  <g id="Artboard_6" data-name="Artboard – 6" clip-path="url(#clip-Artboard_6)">
    <rect width="450" height="450" fill="#fff"/>
    <g id="Gym" transform="translate(94 89)">
      <path id="Path_185" data-name="Path 185" d="M256.372,0a6.153,6.153,0,0,1,2.714,5.881V33.84h4.072v8.234h-4.072V71.3c0,3.348-1.448,4.8-4.8,4.886h-24.43a4.253,4.253,0,0,1-4.705-4.8V42.436H183.987c-4.253,0-5.519-1.357-5.519-5.61a20.359,20.359,0,0,0,0-4.705c0-.9-1.267-1.629-1.991-2.353-.724.724-1.991,1.448-2.081,2.172V43.612c0,.724.814,1.448,1.448,1.991,4.072,3.076,8.143,6.243,12.306,9.048a7.42,7.42,0,0,1,3.348,5.61c1.086,12.758,1.9,25.516,3.529,38.183A81.434,81.434,0,0,1,191.5,124.5c-.452,2.9-1.267,5.7-1.81,8.505a49.856,49.856,0,0,1-7.781,19.544,75.462,75.462,0,0,0-11.853,42.979c0,2.352,0,4.8,0,7.148a2.263,2.263,0,0,1,0,.633h-8.415a194.806,194.806,0,0,0-6.877-35.469,57.462,57.462,0,0,0-4.886,4.072,3.167,3.167,0,0,0-1,2.443,17.011,17.011,0,0,1-33.659,3.348v-1c.9-4.705-2.624-6.062-6.062-8.053a186.482,186.482,0,0,0-6.967,35.2H93.143V187.207a70.757,70.757,0,0,0-15.02-39.45,9.048,9.048,0,0,1-1.719-4.072q-4.072-18.1-7.872-35.288a12.939,12.939,0,0,1,0-3.71c1.086-12.577,2.262-25.154,3.438-37.731,0-2.172.543-4.343.633-6.605a5.881,5.881,0,0,1,2.8-4.8c4.253-3.076,8.505-6.243,12.667-9.048a4.8,4.8,0,0,0,1.538-2.986V33.388c0-1.538-.633-2.9-2.172-2.624s-1.719,1.719-2.081,2.714a33.024,33.024,0,0,0,0,4.253c0,4.253-1.267,5.61-5.429,5.61H38.492V71.028c0,3.891-1.448,5.338-5.248,5.338H9.629c-3.619,0-5.067-1.448-5.067-5.157V42.436H.49V34.021H4.562V5.881A6.062,6.062,0,0,1,7.186,0H35.868a6.062,6.062,0,0,1,2.624,5.881c0,8.415,0,16.739,0,25.154v2.8H47V20.992a12.577,12.577,0,0,1,12.4-12.486h13.3a12.4,12.4,0,0,1,11.853,9.048,16.952,16.952,0,0,0,.814,3.71c9.048,0,11.491,3.076,12.758,12.758h67.409c1.176-9.682,2.9-11.4,12.758-12.848A12.939,12.939,0,0,1,192.764,8.505h11.4a12.306,12.306,0,0,1,11.582,8.145,14.3,14.3,0,0,1,.814,5.156c0,3.981,0,8.053,0,11.944h8.505V5.881A6.153,6.153,0,0,1,227.78,0ZM114.587,161.329h0a13.481,13.481,0,0,0-1.267-1.086,35.559,35.559,0,0,1-15.291-22.711c0-.814-1.267-1.719-2.172-2.081a16.015,16.015,0,0,1-10.948-15.563q0-5.565,0-11.129a89.307,89.307,0,0,1,.9-15.563,46.508,46.508,0,0,1,91.748,1.991c.814,7.962.543,16.015.633,24.068a16.015,16.015,0,0,1-11.4,16.287,3.167,3.167,0,0,0-1.81,2.081,34.655,34.655,0,0,1-14.929,22.349l-1.538,1.267c6.967-3.891,13.572-8.234,20.087-12.577a32.031,32.031,0,0,0,9.048-6.7,30.764,30.764,0,0,0,3.076-11.31,102.243,102.243,0,0,0,5.338-35.469c-1.629-10.224-2.081-20.72-2.986-31.126a5.067,5.067,0,0,0-2.353-4.072c-3.438-2.353-6.515-5.157-10.043-7.329a9.048,9.048,0,0,1-4.976-9.591v-.543H97.939a12.85,12.85,0,0,0,0,1.719,7.148,7.148,0,0,1-3.71,7.51c-3.619,2.353-6.877,5.248-10.5,7.691a7.419,7.419,0,0,0-3.348,6.334c-.724,9.048-1.629,18.1-2.443,27.145a56.009,56.009,0,0,0-.452,13.663c1.9,11.129,4.705,22.078,7.239,33.026a6.062,6.062,0,0,0,2.081,3.076c9.048,5.881,17.463,11.672,26.24,17.463A13.39,13.39,0,0,0,114.587,161.329ZM106.806,110.3c0,8.415-.633,16.558,0,24.611a25.063,25.063,0,0,0,24.159,21.9,24.34,24.34,0,0,0,24.882-19,202.682,202.682,0,0,0,1.81-27.778,24.158,24.158,0,0,1-14.3-9.863A57.546,57.546,0,0,1,106.806,110.3Zm-9.048-4.343c1.176-3.438,2.081-4.072,5.519-4.162l10.405-.452A38.907,38.907,0,0,0,141.37,90.482a4.162,4.162,0,0,1,7.058,1.086,38.093,38.093,0,0,0,2.534,4.072,12.215,12.215,0,0,0,9.048,5.972,5.338,5.338,0,0,1,5.791,4.434h4.072a38.093,38.093,0,0,0-18.1-36.826,36.193,36.193,0,0,0-40.264,0,37.821,37.821,0,0,0-18.1,36.193ZM29.806,67.771V9.048H25.734v8.143H17.229V9.048H13.248V67.771H17.32V25.7h8.505V67.771ZM246.238,50.76h-8.505V9.048h-3.981V67.68h4.162V59.537h8.505v8.234H250.4V9.048h-4.162ZM55.412,33.75H76.676V21.444a4.072,4.072,0,0,0-4.524-4.434H60.117A4.253,4.253,0,0,0,55.5,21.625C55.412,25.606,55.412,29.588,55.412,33.75Zm131.56,0h21.173v-12.4a4.253,4.253,0,0,0-4.615-4.343H191.587a4.253,4.253,0,0,0-4.615,4.434C186.882,25.425,186.973,29.5,186.973,33.75Zm-63.337,131.2v9.591a9.048,9.048,0,0,0,8.053,7.872,8.324,8.324,0,0,0,8.6-7.058,80.354,80.354,0,0,0,0-10.405ZM98.029,126.132v-11.4l-.724-.633c-1.086,1.086-2.9,1.991-3.257,3.348a6.967,6.967,0,0,0,3.71,8.686Zm68.042,0a7.058,7.058,0,0,0,4.162-8.6c0-2.172-2.081-2.714-4.162-2.8ZM95.586,159.067l4.162,12.125.633-1.719C101.739,162.867,101.739,162.867,95.586,159.067Zm73.381,0c-6.877,3.891-7.51,5.791-3.981,11.672Z" transform="translate(-0.49 0)" fill="#505050"/>
      <path id="Path_186" data-name="Path 186" d="M8.347,6.244h8.415a21.9,21.9,0,0,1,0,2.443c-1.086,22.349-2.624,44.789-3.076,67.138A143.142,143.142,0,0,0,17.666,115a70.033,70.033,0,0,0,11.039,24.7,53.294,53.294,0,0,1,9.048,20.811c2.172,9.953,4.615,19.906,6.967,29.859a10.043,10.043,0,0,0,.633,1.991,8.505,8.505,0,0,0,6.153-3.8,31.668,31.668,0,0,0,4.8-17.372q0-1.764,0-3.8h8.143a30.04,30.04,0,0,1-17.192,33.75l3.981,16.92h86.5l3.981-16.92a24.611,24.611,0,0,1-16.92-22.349,112.657,112.657,0,0,1-.814-11.31h8.505a33.75,33.75,0,0,0,6.153,22.349A24.883,24.883,0,0,0,143.617,193c1.357-5.791,2.624-10.948,3.891-16.2,1.991-8.505,3.891-17.192,6.062-25.7a15.925,15.925,0,0,1,2.443-5.158,87.858,87.858,0,0,0,15.563-33.931c1.538-8.415,2.262-17.1,2.986-25.7a457.287,457.287,0,0,0-1.9-63.337c0-5.61-.633-11.22-1-17.011l8.505-.452c0,5.7.814,11.129,1.086,16.558.814,18.1,2.081,36.193,2.081,54.832a140.427,140.427,0,0,1-5.519,45.241,81.433,81.433,0,0,1-11.4,22.53A46.417,46.417,0,0,0,159,162.235c-4.524,19.906-9.048,39.812-13.934,59.718-1,4.343-1.9,5.067-6.605,5.067H48.792c-4.434,0-5.429-.724-6.424-5.248-5.338-22.53-10.586-45.241-15.925-67.59a12.4,12.4,0,0,0-2.081-4.253A89.215,89.215,0,0,1,8.075,111.474,231.187,231.187,0,0,1,5.18,78c0-16.2,1.086-32.483,1.81-48.679C7.352,21.716,7.894,14.206,8.347,6.244Z" transform="translate(37.256 44.426)" fill="#505050"/>
      <path id="Path_187" data-name="Path 187" d="M24.458,40.176H16.5c-.9-5.519-.543-11.944-8.505-12.758V19.275C19.843,18.46,25.543,30.585,24.458,40.176Z" transform="translate(59.871 154.812)" fill="#505050"/>
      <path id="Path_188" data-name="Path 188" d="M37.035,27.293c-6.334,1.629-7.51,3.348-8.505,12.758H20.477A17.373,17.373,0,0,1,37.035,19.24Z" transform="translate(157.591 154.847)" fill="#505050"/>
    </g>
  </g>
</svg>
