<?xml version="1.0" encoding="UTF-8"?>
<svg id="Layer_1" data-name="Layer 1" xmlns="http://www.w3.org/2000/svg" viewBox="0 0 1080 1080">
  <path d="m91.05,1054c-10.87-5.92-14.7-14.93-14.27-27.32.76-22.07.2-44.18.22-66.27.01-17.55,3.09-21.93,20.08-28.12,0-17.53-.02-35.25,0-52.97.03-19.38,6.67-26.11,25.75-26.18,4.32-.01,8.65,0,14.42,0v-12.05c0-95.74,0-191.48,0-287.22,0-3.68-.22-7.41.27-11.03,1.35-9.93,9.34-16.98,19.13-17.26,10.28-.29,18.88,6.66,20.44,16.92.55,3.61.31,7.35.31,11.03.01,95.41.01,190.81.01,286.22v12.67h140.62v-11.7c0-109.13,0-218.26,0-327.39,0-30.04,15.77-45.86,45.7-45.86,116.83-.01,233.66-.01,350.49,0,29.92,0,45.7,15.83,45.71,45.87.02,108.8,0,217.59,0,326.39,0,3.99,0,7.98,0,12.69h140.01V286.66h-8.08c-50.88,0-101.77.05-152.65-.07-5.36-.01-8.81.45-11.19,6.71-31.49,83.1-104.91,134.47-190.76,133.96-84.3-.5-157.62-53.2-188.08-135.19-.58-1.56-1.23-3.08-2-5h-169.78c0,8.37,0,16.59,0,24.82,0,15.73.03,31.47,0,47.2-.03,16.06-7.8,25.81-20.32,25.63-12.48-.18-19.81-9.8-19.83-26.11-.02-20.42,0-40.84,0-61.26,0-3.27,0-6.54,0-10.73-7.23,0-13.52.24-19.78-.05-12.1-.56-20.13-8.31-20.27-20.43-.3-26.44-.32-52.89,0-79.33.17-13.55,8.79-20.63,24.12-20.64,71.3-.04,142.61-.02,213.91-.02,3.67,0,7.33,0,10.83,0,37.06-91.7,102.89-142.04,203.15-140.1,67.69,1.32,148.79,44.55,182.18,140.1,7.77,0,15.77,0,23.78,0,66.62,0,133.23-.01,199.85,0,19.24,0,25.87,6.69,25.89,26.04.03,22.76.03,45.53,0,68.29-.02,19.34-6.71,26.11-25.78,26.17-4.32.01-8.65,0-13.67,0v566.47c5.54,0,11.11-.08,16.68.02,15.08.26,22.64,7.84,22.74,23.13.13,18.73.03,37.45.03,55.98,16.98,6.25,20.08,10.65,20.09,28.14.01,22.09-.54,44.21.21,66.27.42,12.38-3.42,21.39-14.27,27.33H91.05ZM358.92,508.07v344.25h159.47v-344.25h-159.47Zm200.85.02v344.25h159.5v-344.25h-159.5Zm-181.47-282.27c-.2,88.42,71.51,160.89,159.61,161.28,88.91.4,161.56-71.53,161.77-160.14.21-88.43-71.52-160.88-159.63-161.24-88.99-.37-161.56,71.46-161.76,160.1Zm582.08,748.54H117.99v38.95h842.39v-38.95Zm-20.07-80.33H137.73v38.92h802.58v-38.92ZM138.09,206.71v38.92h199.92v-38.92h-199.92Zm802.18.48h-200.28v38.81h200.28v-38.81Z"/>
  <path d="m158.08,435.18c10.86.35,19.41,9.28,19.25,20.1-.16,11.01-9.9,20.33-20.76,19.85-10.57-.47-19.39-9.79-19.26-20.36.14-11.22,9.4-19.95,20.76-19.58Z"/>
  <path d="m438.59,680.17c0-6.33-.18-12.67.04-18.99.43-12.17,8.61-20.72,19.72-20.9,11.1-.17,19.95,8.33,20.27,20.3.36,13.32.39,26.67-.03,39.98-.36,11.47-8.94,19.74-19.65,19.91-11.1.17-19.77-8.35-20.29-20.31-.29-6.65-.05-13.33-.06-19.99Z"/>
  <path d="m639.35,681.1c0,6.66.34,13.35-.07,19.99-.7,11.34-9.45,19.51-20.17,19.38-10.73-.13-19.37-8.4-19.71-19.84-.4-13.65-.44-27.34.04-40.98.4-11.33,9.38-19.5,20.13-19.37,10.75.13,19.16,8.36,19.75,19.83.36,6.98.07,13.99.04,20.99Z"/>
  <path d="m478.75,166.15c0-7.26-.12-13.54.02-19.81.5-22.91,17.27-39.94,40.04-40.4,13.39-.27,26.78-.25,40.17,0,22.82.42,39.66,17.36,40.23,40.22.16,6.29.02,12.58.02,20,7.38,0,13.97-.16,20.56.03,22.26.64,39.12,17.44,39.64,39.78.32,13.72.34,27.46-.01,41.17-.58,22.22-17.59,38.88-39.94,39.48-6.31.17-12.62.03-20.23.03,0,6.84.1,13.08-.02,19.32-.45,23.49-17.23,40.5-40.58,40.91-13.05.23-26.11.22-39.17,0-23.43-.38-40.27-17.32-40.71-40.77-.11-5.99-.02-11.99-.02-19.46-7,0-13.55.14-20.09-.03-22.81-.57-39.71-17.47-40.13-40.33-.24-13.05-.2-26.11-.01-39.17.34-23.96,17.33-40.65,41.51-40.97,5.68-.08,11.37-.01,18.72-.01Zm-19.28,40.16v39.77c1.49.2,2.15.36,2.82.36,10.36.03,20.73.03,31.09.06,18.52.06,25.45,6.95,25.52,25.37.04,11.54,0,23.07,0,34.33h40.19c0-12.51-.09-24.47.02-36.43.15-15.72,7.67-23.12,23.58-23.25,11.93-.1,23.87-.02,36.02-.02v-40.18c-12.29,0-23.94.06-35.58-.02-16.55-.11-23.89-7.4-24.01-23.84-.09-11.91-.02-23.82-.02-35.68h-40.19c0,12.74.12,24.74-.03,36.75-.19,15.05-7.86,22.59-23.08,22.75-11.97.13-23.95.03-36.32.03Z"/>
</svg>