<svg xmlns="http://www.w3.org/2000/svg" xmlns:xlink="http://www.w3.org/1999/xlink" width="450" height="450" viewBox="0 0 450 450">
  <defs>
    <clipPath id="clip-path">
      <rect id="Rectangle_7039" data-name="Rectangle 7039" width="459.925" height="459.925" fill="none"/>
    </clipPath>
    <clipPath id="clip-Artboard_5">
      <rect width="450" height="450"/>
    </clipPath>
  </defs>
  <g id="Artboard_5" data-name="Artboard – 5" clip-path="url(#clip-Artboard_5)">
    <rect width="450" height="450" fill="#fff"/>
    <g id="Group_39309" data-name="Group 39309" transform="translate(-9.925 -4.963)">
      <g id="Group_39252" data-name="Group 39252" transform="translate(0 0)" clip-path="url(#clip-path)">
        <path id="Path_221" data-name="Path 221" d="M218.8,80.106h13.257a23.74,23.74,0,0,1,14.225-4.8,23.98,23.98,0,0,1,23.955,23.955h9.582a33.508,33.508,0,0,0-43.311-32.072,33.5,33.5,0,0,0-62.136-13.851,33.448,33.448,0,0,0-57.527,0A33.476,33.476,0,0,0,54.922,65.752c-.129,0-.264-.024-.4-.024A33.578,33.578,0,0,0,20.987,99.266h9.582a23.955,23.955,0,1,1,47.911,0H88.1a23.955,23.955,0,1,1,47.911,0h9.616A23.983,23.983,0,0,1,169.583,75.31a23.744,23.744,0,0,1,14.23,4.8h13.257a33.659,33.659,0,0,0-17.555-12.874,23.9,23.9,0,0,1,47.58,3.272h2.036a33.643,33.643,0,0,0-10.33,9.6M64.461,67.232a23.89,23.89,0,0,1,47.1-1.476A33.505,33.505,0,0,0,83.29,82.109,33.659,33.659,0,0,0,64.461,67.232m57.527,0a23.89,23.89,0,0,1,47.1-1.476,33.512,33.512,0,0,0-28.272,16.352,33.659,33.659,0,0,0-18.829-14.876" transform="translate(79.554 140.136)" fill="#475059"/>
        <rect id="Rectangle_7031" data-name="Rectangle 7031" width="306.63" height="9.582" transform="translate(76.585 363.979)" fill="#475059"/>
        <path id="Path_222" data-name="Path 222" d="M313.084,67.71l-4.93,0-.479,0-22.005-.053-5.778-.01a23.992,23.992,0,0,0-23.51-19.528h-2.736l-10.392-.034-10.2-.034L220.563,48l-5.069-.019-5.179-.01-11.321-.038h-.786a23.771,23.771,0,0,0-17,6.981,24.042,24.042,0,0,0-2.29,2.76,23.781,23.781,0,0,0-4.8,14.191l-.134,43.676,66.994.206-.01-37.7,0-5.975a14.36,14.36,0,0,1,4.259-10.191,14.8,14.8,0,0,1,10.215-4.192h.915a14.24,14.24,0,0,1,13.6,9.918l-19.39-.038-.024,9.582,35.128.077,17.8.038-.24,77.616a9.586,9.586,0,0,1-9.616,9.549l-249.132-.767a9.586,9.586,0,0,1-9.553-9.611l.24-77.616,129.34.446.034-9.582L25.619,66.828v0L16.037,66.8l-.029,9.582,9.582.029-.24,77.616a19.182,19.182,0,0,0,19.1,19.217l249.137.767h.062a19.155,19.155,0,0,0,19.164-19.1l.24-77.616,9.582.029.029-9.582-9.582-.029Zm-81.693,38.425-47.8-.144L183.7,71.9A14.277,14.277,0,0,1,196.56,57.677c.541-.057,1.068-.153,1.619-.158h.814l13.41.038,4.8.019,4.791.014,9.635.029,4.609.01-.029.058a23.834,23.834,0,0,0-4.829,14.378l0,5.984Z" transform="translate(60.678 181.719)" fill="#475059"/>
        <path id="Path_223" data-name="Path 223" d="M71.15,56.357A19.164,19.164,0,1,0,51.986,37.192,19.184,19.184,0,0,0,71.15,56.357m0-28.747a9.582,9.582,0,1,1-9.582,9.582A9.592,9.592,0,0,1,71.15,27.61" transform="translate(197.074 68.336)" fill="#475059"/>
        <path id="Path_224" data-name="Path 224" d="M58.315,49.192A19.164,19.164,0,1,0,39.15,68.357,19.184,19.184,0,0,0,58.315,49.192m-28.747,0a9.582,9.582,0,1,1,9.582,9.582,9.592,9.592,0,0,1-9.582-9.582" transform="translate(75.759 113.829)" fill="#475059"/>
        <path id="Path_225" data-name="Path 225" d="M108.315,53.192A19.164,19.164,0,1,0,89.15,72.357a19.184,19.184,0,0,0,19.164-19.164M89.15,62.775a9.582,9.582,0,1,1,9.582-9.582,9.592,9.592,0,0,1-9.582,9.582" transform="translate(265.313 128.994)" fill="#475059"/>
        <rect id="Rectangle_7032" data-name="Rectangle 7032" width="9.582" height="9.582" transform="translate(316.135 158.23)" fill="#475059"/>
        <rect id="Rectangle_7033" data-name="Rectangle 7033" width="9.582" height="9.582" transform="translate(210.731 158.23)" fill="#475059"/>
        <rect id="Rectangle_7034" data-name="Rectangle 7034" width="9.582" height="9.582" transform="translate(181.984 129.484)" fill="#475059"/>
        <rect id="Rectangle_7035" data-name="Rectangle 7035" width="81.453" height="9.582" transform="translate(143.651 268.426)" fill="#475059"/>
        <rect id="Rectangle_7036" data-name="Rectangle 7036" width="9.544" height="9.582" transform="translate(105.327 268.426)" fill="#475059"/>
        <rect id="Rectangle_7037" data-name="Rectangle 7037" width="9.544" height="9.582" transform="translate(124.506 268.426)" fill="#475059"/>
        <rect id="Rectangle_7038" data-name="Rectangle 7038" width="43.125" height="9.582" transform="translate(311.344 268.426)" fill="#475059"/>
      </g>
    </g>
  </g>
</svg>
