<svg xmlns="http://www.w3.org/2000/svg" xmlns:xlink="http://www.w3.org/1999/xlink" width="92" height="92" viewBox="0 0 92 92">
  <defs>
    <clipPath id="clip-path">
      <rect id="Rectangle_7039" data-name="Rectangle 7039" width="92" height="92" transform="translate(0.002 0.002)" fill="none"/>
    </clipPath>
  </defs>
  <g id="Group_39253" data-name="Group 39253" transform="translate(-0.002 -0.002)">
    <g id="Group_39252" data-name="Group 39252" clip-path="url(#clip-path)">
      <path id="Path_221" data-name="Path 221" d="M60.556,45.6h2.652a4.749,4.749,0,0,1,2.845-.959,4.8,4.8,0,0,1,4.792,4.792h1.917A6.7,6.7,0,0,0,64.1,43.013a6.7,6.7,0,0,0-12.429-2.771,6.691,6.691,0,0,0-11.507,0,6.7,6.7,0,0,0-12.387,2.482c-.026,0-.053,0-.08,0a6.717,6.717,0,0,0-6.709,6.709H22.9a4.792,4.792,0,0,1,9.584,0h1.924a4.792,4.792,0,0,1,9.584,0h1.923a4.8,4.8,0,0,1,4.792-4.792,4.75,4.75,0,0,1,2.846.959h2.652A6.733,6.733,0,0,0,52.7,43.021a4.781,4.781,0,0,1,9.518.655h.407A6.73,6.73,0,0,0,60.556,45.6M29.683,43.021a4.779,4.779,0,0,1,9.422-.3A6.7,6.7,0,0,0,33.45,46a6.733,6.733,0,0,0-3.766-2.976m11.507,0a4.779,4.779,0,0,1,9.422-.3A6.7,6.7,0,0,0,44.957,46a6.733,6.733,0,0,0-3.766-2.976" transform="translate(-0.874 -1.539)" fill="#475059"/>
      <rect id="Rectangle_7031" data-name="Rectangle 7031" width="61.336" height="1.917" transform="translate(15.322 72.81)" fill="#475059"/>
      <path id="Path_222" data-name="Path 222" d="M75.433,51.891H74.351l-4.4-.011-1.156,0a4.8,4.8,0,0,0-4.7-3.906h-.547l-2.079-.007-2.04-.007-2.5-.008-1.014,0-1.036,0-2.265-.008h-.157a4.755,4.755,0,0,0-3.4,1.4,4.809,4.809,0,0,0-.458.552,4.757,4.757,0,0,0-.959,2.839l-.027,8.737,13.4.041,0-7.541v-1.2a2.872,2.872,0,0,1,.852-2.038,2.96,2.96,0,0,1,2.043-.839h.183a2.849,2.849,0,0,1,2.721,1.984l-3.879-.008,0,1.917,7.027.015,3.561.008-.048,15.526a1.917,1.917,0,0,1-1.923,1.91L21.7,71.086a1.917,1.917,0,0,1-1.911-1.923l.048-15.526,25.872.089.007-1.917-27.79-.095h0l-1.917-.006-.006,1.917,1.917.006-.048,15.526A3.837,3.837,0,0,0,21.7,73l49.835.153h.012a3.832,3.832,0,0,0,3.833-3.821l.048-15.526,1.917.006L77.35,51.9l-1.917-.006ZM59.092,59.577l-9.561-.029.021-6.819a2.856,2.856,0,0,1,2.572-2.845c.108-.012.214-.031.324-.032h.163l2.682.008.96,0,.958,0,1.927.006.922,0-.006.012a4.768,4.768,0,0,0-.966,2.876v6.815Z" transform="translate(-0.666 -1.995)" fill="#475059"/>
      <path id="Path_223" data-name="Path 223" d="M55.819,25.695a3.833,3.833,0,1,0-3.833-3.833,3.837,3.837,0,0,0,3.833,3.833m0-5.75A1.917,1.917,0,1,1,53.9,21.861a1.919,1.919,0,0,1,1.917-1.917" transform="translate(-2.164 -0.75)" fill="#475059"/>
      <path id="Path_224" data-name="Path 224" d="M27.653,33.861a3.833,3.833,0,1,0-3.833,3.833,3.837,3.837,0,0,0,3.833-3.833m-5.75,0a1.917,1.917,0,1,1,1.917,1.917A1.919,1.919,0,0,1,21.9,33.861" transform="translate(-0.832 -1.25)" fill="#475059"/>
      <path id="Path_225" data-name="Path 225" d="M77.653,37.861a3.833,3.833,0,1,0-3.833,3.833,3.837,3.837,0,0,0,3.833-3.833m-3.833,1.917a1.917,1.917,0,1,1,1.917-1.917,1.919,1.919,0,0,1-1.917,1.917" transform="translate(-2.913 -1.416)" fill="#475059"/>
      <rect id="Rectangle_7032" data-name="Rectangle 7032" width="1.917" height="1.917" transform="translate(63.239 31.653)" fill="#475059"/>
      <rect id="Rectangle_7033" data-name="Rectangle 7033" width="1.917" height="1.917" transform="translate(42.155 31.653)" fill="#475059"/>
      <rect id="Rectangle_7034" data-name="Rectangle 7034" width="1.917" height="1.917" transform="translate(36.405 25.903)" fill="#475059"/>
      <rect id="Rectangle_7035" data-name="Rectangle 7035" width="16.293" height="1.917" transform="translate(28.737 53.696)" fill="#475059"/>
      <rect id="Rectangle_7036" data-name="Rectangle 7036" width="1.909" height="1.917" transform="translate(21.071 53.696)" fill="#475059"/>
      <rect id="Rectangle_7037" data-name="Rectangle 7037" width="1.909" height="1.917" transform="translate(24.907 53.696)" fill="#475059"/>
      <rect id="Rectangle_7038" data-name="Rectangle 7038" width="8.626" height="1.917" transform="translate(62.281 53.696)" fill="#475059"/>
    </g>
  </g>
</svg>
