<svg xmlns="http://www.w3.org/2000/svg" xmlns:xlink="http://www.w3.org/1999/xlink" width="450" height="450" viewBox="0 0 450 450">
  <defs>
    <clipPath id="clip-Artboard_7">
      <rect width="450" height="450"/>
    </clipPath>
  </defs>
  <g id="Artboard_7" data-name="Artboard – 7" clip-path="url(#clip-Artboard_7)">
    <rect width="450" height="450" fill="#fff"/>
    <g id="Multiple_Kids_Zones" data-name="Multiple Kids Zones" transform="translate(97 97)">
      <path id="Path_189" data-name="Path 189" d="M137.331,247.627H247.872V210.275c0-3.388,1.6-5.17,4.368-5.17s4.19,1.872,4.19,5.081v41.007c0,3.477-1.516,4.992-4.992,4.992H133.587c-3.655,0-5.081-1.426-5.081-5.17V237.643H116.916c-4.19,0-5.527-1.337-5.527-5.616V175.419h-.446l-13.55,21.128c4.814.891,5.527,1.783,5.527,6.6V217.5c0,3.388-1.515,4.9-4.814,4.9H83.4a4.1,4.1,0,0,0-4.012,2.229c-5.26,8.291-10.7,16.492-15.868,24.872A14.174,14.174,0,0,1,50.5,256.631H5.93c-2.942,0-4.725-1.337-4.992-3.655s1.6-4.814,4.992-4.814H49.255a8.291,8.291,0,0,0,7.845-4.636q35.124-55.092,70.693-110.1l1.159-2.05a4.546,4.546,0,0,1,4.814-2.942h11.589v-8.915h-9.9c-10.787,0-8.469-1.159-14.263,7.845Q86.429,181.927,51.929,235.414a7.221,7.221,0,0,1-6.775,3.655H6.019C2.1,239.069.67,237.732.67,233.9V146.268c0-1.961,0-3.922,2.318-4.546a6.151,6.151,0,0,1,4.19,0c1.961.8,2.05,2.853,1.961,4.814v83.708h8.915V58.281c0-4.279-1.426-6.508-4.19-6.508S9.5,53.913,9.5,58.192V127.1a7.756,7.756,0,0,1-.713,3.566,3.388,3.388,0,0,1-4.457,1.783c-1.337-.535-2.229-2.14-3.209-3.388s0-1.07,0-1.6V56.141A12.748,12.748,0,0,1,25.9,53.2a43.414,43.414,0,0,1,0,6.953H43.014c.624-2.14,1.694-4.19,4.546-4.1s3.833,1.872,4.457,4.19H85.626c.624-2.5,1.872-4.279,4.725-4.19s3.655,1.783,4.19,4.1h16.849V55.785a12.837,12.837,0,0,1,25.585,0V97.862c0,3.12-1.694,4.9-4.279,4.9s-4.19-1.872-4.19-4.992V58.37a17.113,17.113,0,0,0,0-2.14,4.249,4.249,0,1,0-8.469.089v57.856c6.953-4.725,14.709-2.229,22.019-2.853h3.388V43.215h-8.112a4.19,4.19,0,0,1-4.546-2.942,4.368,4.368,0,0,1,1.961-5.081c13.194-9.539,26.744-19.256,39.67-28.705a30.22,30.22,0,0,1,35.658,0c2.14,1.337,4.19,2.942,6.24,4.457a4.279,4.279,0,1,1-5.081,6.864c-2.05-1.337-3.922-2.853-5.884-4.19a21.662,21.662,0,0,0-25.407,0c-9.449,6.686-18.81,13.639-28.17,20.414l-.981.891h83.8L227.9,30.378a32.543,32.543,0,0,1-2.764-2.14,4.012,4.012,0,0,1-.891-5.884,4.19,4.19,0,0,1,5.884-.981c2.674,1.783,5.17,3.744,7.756,5.616l11.856,8.915a4.368,4.368,0,0,1,1.961,5.349,4.19,4.19,0,0,1-4.636,2.764h-7.845V68.978c0,3.12-1.694,4.9-4.368,4.9a4.279,4.279,0,0,1-4.19-4.814V43.393H154.18v85.045h55.092V95.009a17.027,17.027,0,1,0-34.054,0v20.236c0,3.388-1.6,5.26-4.368,5.17s-4.1-1.872-4.1-5.081V94.3a25.5,25.5,0,1,1,50.992,0v34.5h12.748V86.54c0-3.3,1.961-5.26,4.814-4.9s3.744,1.961,3.744,4.992v41.81h11.767c3.833,0,5.26,1.426,5.26,5.26v57.143c0,3.477-1.426,5.349-4.19,5.349s-4.368-1.783-4.368-5.438v-53.4H137.331ZM51.84,196.636H64.5a3.477,3.477,0,0,0,3.388-1.872c5.527-8.915,11.143-17.294,16.581-26.031A9.628,9.628,0,0,0,85.8,164.1V86.005H51.84Zm-8.915,0V86.005H26.344V230.69H44.173a2.229,2.229,0,0,0,1.515-.713c1.6-2.407,3.12-4.9,4.9-7.756H39.716c-3.477,0-4.992-1.515-4.992-5.081V204.391c0-6.24.713-8.2,7.4-7.756a1.961,1.961,0,0,0,.981-.178Zm51.437-43.414,1.6-2.318c4.636-7.31,8.915-14.531,14-21.93a8.2,8.2,0,0,0,1.248-4.1c0-12.035,0-24.159,0-36.193v-2.5H94.541ZM128.416,229V148.14c-2.5,4.012-4.9,7.488-6.953,11.054a8.915,8.915,0,0,0-1.337,4.368v65.255ZM85.894,77.447V68.978H51.929v8.2Zm-42.612,0V68.978H26.433v8.2Zm51.348,0h16.759V68.978H94.452ZM43.371,213.663H54.6a1.872,1.872,0,0,0,1.515-.713l4.992-7.667H43.282Zm42.7,0h8.112v-8.915c-4.814,1.159-5.17,5.794-8.112,8.647Z" transform="translate(-0.67 -0.667)" fill="#505050"/>
      <path id="Path_190" data-name="Path 190" d="M94.66,57.319A38.422,38.422,0,0,1,18.351,63.2a37.709,37.709,0,0,1,4.012-23.891c1.783-3.388,4.1-4.457,6.508-3.209s2.942,3.744,1.159,7.132A29.864,29.864,0,1,0,60.606,27.811,30.934,30.934,0,0,0,41.886,31.2c-2.764,1.515-4.725,1.248-6.24-.624a4.279,4.279,0,0,1,1.248-6.508,36.1,36.1,0,0,1,23.8-4.9,37.976,37.976,0,0,1,33.43,32.895,34.766,34.766,0,0,1,.535,5.26Z" transform="translate(135.426 142.929)" fill="#505050"/>
      <path id="Path_191" data-name="Path 191" d="M23.206,6.408a4.279,4.279,0,1,1-4.368,4.012,4.1,4.1,0,0,1,4.368-4.012Z" transform="translate(143.052 44.698)" fill="#505050"/>
      <path id="Path_192" data-name="Path 192" d="M33.425,10.542a4.457,4.457,0,1,1-8.915,0,4.19,4.19,0,0,1,4.368-4.1,4.1,4.1,0,0,1,4.546,4.1Z" transform="translate(188.014 44.843)" fill="#505050"/>
      <path id="Path_193" data-name="Path 193" d="M21.207,25.383a4.012,4.012,0,0,1-4.279-4.1,4.1,4.1,0,0,1,4.279-4.368,4.19,4.19,0,0,1,4.19,4.279,4.1,4.1,0,0,1-4.19,4.19Z" transform="translate(127.934 127.885)" fill="#505050"/>
      <path id="Path_194" data-name="Path 194" d="M35.345,21.347a4.457,4.457,0,1,1-4.457-4.457A4.457,4.457,0,0,1,35.345,21.347Z" transform="translate(203.21 127.73)" fill="#505050"/>
      <path id="Path_195" data-name="Path 195" d="M21.1,35.017a4.279,4.279,0,1,1,4.368-4.1,4.1,4.1,0,0,1-4.368,4.1Z" transform="translate(127.866 203.474)" fill="#505050"/>
      <path id="Path_196" data-name="Path 196" d="M35.025,30.956a4.279,4.279,0,1,1-2.495-4.068,4.279,4.279,0,0,1,2.495,4.068Z" transform="translate(203.53 203.791)" fill="#505050"/>
    </g>
  </g>
</svg>
