<svg xmlns="http://www.w3.org/2000/svg" width="51.16" height="51.205" viewBox="0 0 51.16 51.205">
  <g id="Multiple_Kids_Zones" data-name="Multiple Kids Zones" transform="translate(-0.67 -0.667)">
    <path id="Path_189" data-name="Path 189" d="M28.007,50.067H50.118V42.6c0-.678.321-1.034.874-1.034s.838.374.838,1.016v8.2c0,.7-.3,1-1,1H27.258c-.731,0-1.016-.285-1.016-1.034V48.07H23.923c-.838,0-1.106-.267-1.106-1.123V35.623h-.089l-2.71,4.226c.963.178,1.106.357,1.106,1.32V44.04c0,.678-.3.981-.963.981H17.218a.82.82,0,0,0-.8.446c-1.052,1.658-2.14,3.3-3.174,4.975a2.835,2.835,0,0,1-2.6,1.427H1.722c-.588,0-.945-.267-1-.731a.914.914,0,0,1,1-.963h8.666a1.658,1.658,0,0,0,1.569-.927Q18.984,38.227,26.1,27.224l.232-.41a.909.909,0,0,1,.963-.588h2.318V24.442H27.632c-2.158,0-1.694-.232-2.853,1.569Q17.825,36.925,10.923,47.624a1.444,1.444,0,0,1-1.355.731H1.74c-.785,0-1.07-.267-1.07-1.034V29.792c0-.392,0-.785.464-.909a1.23,1.23,0,0,1,.838,0c.392.16.41.571.392.963V46.59H4.147v-34.4c0-.856-.285-1.3-.838-1.3s-.874.428-.874,1.284V25.958a1.551,1.551,0,0,1-.143.713.678.678,0,0,1-.892.357c-.267-.107-.446-.428-.642-.678s0-.214,0-.321V11.764a2.55,2.55,0,0,1,4.957-.588,8.684,8.684,0,0,1,0,1.391H9.14c.125-.428.339-.838.909-.82s.767.374.892.838h6.723c.125-.5.374-.856.945-.838s.731.357.838.82h3.37v-.874a2.568,2.568,0,0,1,5.118,0v8.417c0,.624-.339.981-.856.981s-.838-.374-.838-1V12.21a3.424,3.424,0,0,0,0-.428.85.85,0,1,0-1.694.018V23.373c1.391-.945,2.942-.446,4.4-.571h.678V9.178H28.007A.838.838,0,0,1,27.1,8.59a.874.874,0,0,1,.392-1.016c2.639-1.908,5.35-3.852,7.935-5.742a6.045,6.045,0,0,1,7.133,0c.428.267.838.588,1.248.892A.856.856,0,1,1,42.789,4.1c-.41-.267-.785-.571-1.177-.838a4.333,4.333,0,0,0-5.082,0C34.64,4.6,32.768,5.986,30.9,7.341l-.2.178H47.461L46.124,6.61a6.51,6.51,0,0,1-.553-.428.8.8,0,0,1-.178-1.177.838.838,0,0,1,1.177-.2c.535.357,1.034.749,1.551,1.123l2.372,1.783a.874.874,0,0,1,.392,1.07.838.838,0,0,1-.927.553H48.389v4.993c0,.624-.339.981-.874.981a.856.856,0,0,1-.838-.963V9.214h-15.3V26.226H42.4V19.539a3.406,3.406,0,1,0-6.812,0v4.048c0,.678-.321,1.052-.874,1.034s-.82-.374-.82-1.016V19.4a5.1,5.1,0,1,1,10.2,0v6.9h2.55V17.845c0-.66.392-1.052.963-.981s.749.392.749,1v8.363h2.354c.767,0,1.052.285,1.052,1.052v11.43c0,.7-.285,1.07-.838,1.07s-.874-.357-.874-1.088V28.009H28.007Zm-17.1-10.2h2.532a.7.7,0,0,0,.678-.374c1.106-1.783,2.229-3.459,3.317-5.207a1.926,1.926,0,0,0,.267-.927V17.738H10.906Zm-1.783,0V17.738H5.806V46.679H9.372a.446.446,0,0,0,.3-.143c.321-.481.624-.981.981-1.551H8.48c-.7,0-1-.3-1-1.016v-2.55c0-1.248.143-1.641,1.48-1.551a.392.392,0,0,0,.2-.036Zm10.289-8.684.321-.464c.927-1.462,1.783-2.907,2.8-4.387a1.641,1.641,0,0,0,.25-.82c0-2.407,0-4.833,0-7.24v-.5H19.447ZM26.223,46.34V30.167c-.5.8-.981,1.5-1.391,2.211a1.783,1.783,0,0,0-.267.874V46.3ZM17.718,16.026V14.332H10.923v1.641Zm-8.524,0V14.332H5.823v1.641Zm10.271,0h3.352V14.332H19.429ZM9.212,43.273h2.247a.374.374,0,0,0,.3-.143l1-1.534H9.194Zm8.542,0h1.623V41.49c-.963.232-1.034,1.159-1.623,1.73Z" transform="translate(0 0)" fill="#505050"/>
    <path id="Path_190" data-name="Path 190" d="M33.227,26.513A7.686,7.686,0,0,1,17.963,27.69a7.543,7.543,0,0,1,.8-4.779c.357-.678.82-.892,1.3-.642s.588.749.232,1.427a5.974,5.974,0,1,0,6.116-3.085,6.188,6.188,0,0,0-3.745.678c-.553.3-.945.25-1.248-.125a.856.856,0,0,1,.25-1.3,7.222,7.222,0,0,1,4.761-.981,7.6,7.6,0,0,1,6.687,6.58,6.954,6.954,0,0,1,.107,1.052Z" transform="translate(13.468 14.21)" fill="#505050"/>
    <path id="Path_191" data-name="Path 191" d="M19.7,6.4a.856.856,0,1,1-.874.8.82.82,0,0,1,.874-.8Z" transform="translate(14.222 4.489)" fill="#505050"/>
    <path id="Path_192" data-name="Path 192" d="M26.293,7.242a.892.892,0,1,1-1.783,0,.838.838,0,0,1,.874-.82.82.82,0,0,1,.909.82Z" transform="translate(18.672 4.504)" fill="#505050"/>
    <path id="Path_193" data-name="Path 193" d="M17.777,18.6a.8.8,0,0,1-.856-.82.82.82,0,0,1,.856-.874.838.838,0,0,1,.838.856.82.82,0,0,1-.838.838Z" transform="translate(12.726 12.721)" fill="#505050"/>
    <path id="Path_194" data-name="Path 194" d="M28.213,17.782a.892.892,0,1,1-.892-.892A.892.892,0,0,1,28.213,17.782Z" transform="translate(20.176 12.706)" fill="#505050"/>
    <path id="Path_195" data-name="Path 195" d="M17.748,28.172a.856.856,0,1,1,.874-.82.82.82,0,0,1-.874.82Z" transform="translate(12.72 20.201)" fill="#505050"/>
    <path id="Path_196" data-name="Path 196" d="M28.182,27.392a.856.856,0,1,1-.5-.814.856.856,0,0,1,.5.814Z" transform="translate(20.207 20.233)" fill="#505050"/>
  </g>
</svg>
