<?xml version="1.0" encoding="UTF-8"?>
<svg id="Layer_1" data-name="Layer 1" xmlns="http://www.w3.org/2000/svg" viewBox="0 0 1080 1080">
  <path d="m518.23,73.82c4.83,0,9.67,0,14.5,0,1.63.64,3.2,1.52,4.88,1.87,94.16,19.79,188.34,39.51,282.5,59.31,17.06,3.59,22.35,10.2,22.36,27.43.02,68.27.01,136.54.01,204.81,0,3.53,0,7.06,0,10.58,33.63,7.02,66.1,13.87,98.59,20.56,21.48,4.42,25.35,9.03,25.35,31.08,0,172.19,0,344.37,0,516.56,0,3.86,0,7.73,0,11.71,10.2,1.93,18.06,6.02,21.07,15.85,4.91,16.05-6.43,28.29-26.16,28.29-266.13.02-532.27.02-798.4-.04-3.88,0-7.88-.33-11.62-1.28-9.35-2.36-15.45-10.24-15.77-19.67-.33-9.48,5.26-17.75,14.23-20.93,2.46-.87,5-1.48,7.66-2.26,0-4.25,0-7.86,0-11.47,0-195.75,0-391.5,0-587.25,0-21.48,5.1-27.39,26.38-31.45,25.1-4.8,50.15-9.86,75.84-14.93,0-4.31,0-7.88,0-11.46,0-51.35-.04-102.71.03-154.06.02-15.19,6.25-23.18,19.99-25.87,56.55-11.05,113.12-21.94,169.65-33.07,23.02-4.53,45.95-9.54,68.92-14.33ZM200.89,957.67h177.63v-173.69c-2.96.32-5.38.39-7.7.87-24.23,4.98-48.43,10.08-72.66,15.05-19.8,4.06-39.55,8.39-59.45,11.83-10.41,1.8-18.33-4.22-20.33-13.59-1.94-9.08,3.42-17.66,13.11-20.89,2-.67,4.07-1.16,6.14-1.58,27.48-5.64,54.97-11.22,82.44-16.89,19.44-4.02,38.85-8.16,58.29-12.25v-76.16c-2.19.32-3.95.49-5.67.84-43.14,8.86-86.27,17.74-129.41,26.6-13.07,2.68-22.57-2.36-24.68-13.01-2.17-10.94,4.26-19.15,17.46-21.92,23.32-4.9,46.67-9.67,70-14.51,24.12-5.01,48.23-10.04,72.37-15.07v-76.67c-27.12,5.57-53.66,10.99-80.18,16.47-18.61,3.84-37.19,7.83-55.81,11.61-7.83,1.59-16.1,1.23-20.07-6.39-2.61-5.02-3.41-12.2-2.1-17.73,1.85-7.85,9.73-10.04,17.01-11.54,30.13-6.22,60.28-12.35,90.41-18.58,17.02-3.52,34.01-7.15,50.63-10.65v-76.24c-2.46.41-4.24.64-5.99,1-43.43,8.93-86.85,17.91-130.29,26.8-11.65,2.39-21.13-3.05-23.12-13.02-2.11-10.58,3.65-18.96,15.31-21.83,6.15-1.51,12.4-2.57,18.6-3.87,39.86-8.3,79.74-16.53,119.55-25.07,2.48-.53,6.34-3.42,6.37-5.27.44-22.58.29-45.16.29-68.23-3.61.41-6.29.54-8.89,1.05-52.98,10.42-105.92,21.04-158.96,31.16-7.86,1.5-10.55,4.03-10.54,12.58.31,189.4.24,378.8.24,568.2,0,3.29,0,6.59,0,10.61Zm222.22.03h499.75c0-20.73-.3-40.91.16-61.07.16-7.1-1.97-9.61-9.11-11.09-152.08-31.52-304.09-63.37-456.12-95.12-11.34-2.37-22.72-4.51-34.68-6.87v174.16Zm124.22-835.32c-.32,2.48-.68,3.93-.68,5.37-.03,60.37.05,120.73-.16,181.1-.02,6.4,3.43,7.08,8.25,8.09,65.19,13.63,130.35,27.43,195.53,41.14,15.83,3.33,31.7,6.5,47.89,9.82.3-2.52.64-3.99.64-5.47.03-60.37-.04-120.73.15-181.1.02-5.55-2.28-7.01-7.19-8.02-45.46-9.36-90.86-19-136.29-28.49-35.67-7.45-71.36-14.81-108.14-22.44Zm-124.63,547.48c0,23.59.27,45.9-.16,68.2-.13,6.88,2.17,9.08,8.8,10.46,152.6,31.63,305.14,63.54,457.7,95.37,11,2.3,22.05,4.37,33.18,6.56v-76.38c-166.36-34.7-332.13-69.29-499.51-104.2Zm.58-149.87c166.12,34.88,332.36,69.79,499.58,104.9,0-23.5-.25-45.81.15-68.1.12-6.74-1.93-9.08-8.7-10.49-140.22-29.2-280.38-58.71-420.56-88.16-23.25-4.88-46.5-9.73-70.48-14.74v76.6Zm499.18,141.45c-166.74-35-332.67-69.83-499.12-104.77v76.68c166.54,34.68,332.53,69.25,499.12,103.94v-75.86Zm-499.75-327.7c0,21.9.52,42.11-.25,62.26-.32,8.41,2.45,11.32,10.33,12.97,149.63,31.19,299.2,62.64,448.79,94,13.41,2.81,26.85,5.45,40.66,8.24v-72.59c-166.28-34.91-332.02-69.71-499.54-104.88Zm79.97-211.94c-67.27,13.18-133.36,26.13-199.26,39.04v143.1c23.63-4.63,46.59-9.49,69.7-13.49,12.05-2.09,24.53-4.51,36.53-3.45,15.5,1.36,30.7,6.11,46.05,9.29,15.49,3.22,31.01,6.32,46.98,9.56V121.8Z"/>
  <path d="m747.32,278.68c-17.45-3.54-36.37-7.33-55.26-11.21-31.9-6.55-63.77-13.2-95.68-19.71-8.96-1.83-16-5.85-17.89-15.48-2.55-12.94,9.28-22.92,23.74-20.01,26.6,5.36,53.16,10.93,79.74,16.4,22.44,4.62,44.89,9.2,67.33,13.86,13.25,2.75,19.68,10.72,17.73,21.78-1.51,8.61-8.99,14.52-19.71,14.37Z"/>
</svg>