<svg xmlns="http://www.w3.org/2000/svg" width="98.166" height="89.891" viewBox="0 0 98.166 89.891">
  <g id="Group_39208" data-name="Group 39208" transform="translate(1.5 1.5)">
    <line id="Line_46" data-name="Line 46" x2="24.826" transform="translate(70.34 86.891)" fill="none" stroke="#505050" stroke-width="3"/>
    <path id="Path_111" data-name="Path 111" d="M358.017,414.423a9.309,9.309,0,0,0-18.619,0v34.135H351.81V429.94C351.81,425.8,358.017,419.564,358.017,414.423Z" transform="translate(-285.608 -361.669)" fill="none" stroke="#505050" stroke-width="3"/>
    <path id="Path_112" data-name="Path 112" d="M313.963,414.423a9.309,9.309,0,0,1,18.619,0v34.135H320.17V429.94C320.17,425.8,313.963,419.564,313.963,414.423Z" transform="translate(-313.963 -361.669)" fill="none" stroke="#505050" stroke-width="3"/>
    <path id="Path_113" data-name="Path 113" d="M369.486,414.929v-6.207c0-6.854-11.115-12.412-24.828-12.412s-24.826,5.558-24.826,12.412v6.207" transform="translate(-307.42 -371.483)" fill="none" stroke="#505050" stroke-width="3"/>
    <path id="Path_114" data-name="Path 114" d="M322.767,417.189c0-3.428,7.873-6.2,17.585-6.2s17.587,2.777,17.587,6.2" transform="translate(-304.148 -355.124)" fill="none" stroke="#505050" stroke-width="3"/>
    <line id="Line_47" data-name="Line 47" x2="35.17" transform="translate(18.619 80.685)" fill="none" stroke="#505050" stroke-width="3"/>
    <line id="Line_48" data-name="Line 48" y1="62.065" transform="translate(80.684 24.826)" fill="none" stroke="#505050" stroke-width="3"/>
    <path id="Path_115" data-name="Path 115" d="M374.231,409.4H345.267v-2.069l8.275-22.757h12.413l8.275,22.757Z" transform="translate(-279.065 -384.571)" fill="none" stroke="#505050" stroke-width="3"/>
    <line id="Line_49" data-name="Line 49" y2="16.551" transform="translate(88.959 24.826)" fill="none" stroke="#505050" stroke-width="3"/>
  </g>
</svg>
