<?xml version="1.0" encoding="UTF-8"?>
<svg id="Layer_1" data-name="Layer 1" xmlns="http://www.w3.org/2000/svg" viewBox="0 0 1080 1080">
  <path d="m738.58,329.58c19.71,228.64,39.41,457.28,59.16,686.35h79.24c-1.6-19.56-3.16-38.79-4.76-58.01-1.97-23.58-4.1-47.14-5.93-70.73-.85-11.01,3.75-17.34,12.49-18.18,8.95-.87,14.83,4.22,15.82,15.21,4.29,47.82,8.4,95.66,12.25,143.52,1.01,12.52-4.31,17.53-17.43,17.55-40.02.08-80.05.03-120.07.03-201.52,0-403.04,0-604.56,0-21.27,0-25.02-4.83-21.72-25.74,15.11-95.83,30.01-191.7,44.97-287.55,8.47-54.28,16.68-108.61,25.67-162.81.9-5.42,5.38-11.38,9.9-14.87,30.58-23.58,61.44-46.82,92.65-69.56,7.15-5.21,10.68-11.08,11.38-19.53,4.23-51.67,8.51-103.33,12.92-154.98,3.35-39.17,6.56-78.36,10.81-117.43.61-5.58,5.86-11.66,10.55-15.62,51.63-43.5,103.58-86.62,155.42-129.86,3.74-3.12,7.27-6.49,11.07-9.53,6.89-5.49,14.14-5.68,20.9-.03,56.65,47.25,113.33,94.48,169.62,142.17,4.18,3.54,7.12,10.36,7.75,15.97,2.85,25.58,4.85,51.26,6.75,76.94.62,8.43,3.34,14.6,10.27,20.23,32.94,26.78,65.25,54.34,98.05,81.28,6.98,5.74,10.32,12.06,10.96,21.2,2.21,31.58,5.4,63.09,7.76,94.66.34,4.5-.47,10.82-3.35,13.38-3.53,3.14-10.99,5.72-14.58,4-4.65-2.23-9.43-8.61-10.17-13.77-2.63-18.57-3.58-37.39-5.18-56.11-.47-5.55-1.9-11.19-1.31-16.62,2.01-18.58-7.47-29.85-21.46-40.45-21.8-16.51-42.25-34.8-63.27-52.33-.86.4-1.71.8-2.57,1.2Zm29.45,686.24c0-3.68.23-6.75-.03-9.78-6.65-76.58-13.42-153.15-20.02-229.73-7.31-84.9-14.42-169.82-21.71-254.72-8.89-103.6-17.93-207.2-26.65-310.81-.63-7.53-3.24-12.76-9.1-17.58-39.74-32.73-79.21-65.79-118.79-98.73-5.49-4.57-11.05-9.06-17.38-14.25v935.6h213.66Zm-488.06.04c14.32-166.23,28.61-332.03,43.1-500.3-27.54,20.65-53.09,39.69-78.42,59.03-2.15,1.64-3.56,5.13-4.02,7.97-3.81,23.34-7.27,46.73-10.92,70.09-15.69,100.32-31.41,200.63-47.1,300.95-3.21,20.5-6.31,41.02-9.58,62.26h106.93Zm35.93-78.61c2.42-.94,3.46-1.16,4.3-1.69,66.2-42.21,132.42-84.38,198.41-126.91,2.98-1.92,5.36-7.12,5.42-10.84.45-28.16.24-56.33.25-84.49,0-8.89,0-17.79,0-27.25-2.07.55-3.13.58-3.9,1.07-63.02,40.09-126.04,80.17-188.91,120.49-2.5,1.6-4.86,5.29-5.13,8.21-3.67,40.11-6.96,80.25-10.43,121.42Zm207.54,78.75v-175.13c-1.79.81-2.78,1.12-3.63,1.66-67.13,42.79-134.26,85.57-201.31,128.48-2.44,1.56-5.5,4.22-5.82,6.69-1.62,12.57-2.44,25.25-3.57,38.29h214.34Zm-193.46-243.16c2.08-.55,2.81-.57,3.35-.91,62.11-39.57,124.23-79.1,186.17-118.94,2.52-1.62,4.45-6.02,4.56-9.2.49-13.89.21-27.81.21-41.72,0-23.52,0-47.05,0-71.09-1.98.49-3.07.49-3.84.98-58.31,37.12-116.62,74.25-174.82,111.55-2.28,1.46-4.68,4.56-4.91,7.09-3.75,40.46-7.16,80.96-10.72,122.23Zm194.28-396.71c-2.13.44-2.89.4-3.42.74-53.68,34.17-107.37,68.31-160.9,102.71-2.41,1.55-4.49,5.22-4.82,8.12-2.23,19.69-4.07,39.44-5.81,59.18-1.78,20.28-3.31,40.58-5,61.56,2.19-.6,3.26-.64,4.05-1.14,57.19-36.42,114.37-72.84,171.43-109.47,2.16-1.38,4.26-4.79,4.28-7.27.27-37.91.19-75.82.19-114.42Zm0-156.16c-4.31,2.61-6.95,4.15-9.53,5.79-45.72,29.12-91.34,58.38-137.23,87.21-6.35,3.99-9,8.61-9.53,15.82-1.85,24.96-4.22,49.88-6.3,74.82-1.11,13.35-2.03,26.72-3.09,40.69,2.27-.54,3.38-.53,4.18-1.04,52.45-33.42,104.9-66.84,157.21-100.48,2.13-1.37,4.11-4.85,4.12-7.36.26-37.88.18-75.75.18-115.46Zm0-140.61c-42.03,34.99-81.38,68.76-121.95,101.01-15.89,12.63-26.54,25.44-25.8,47.13.6,17.43-2.48,34.98-4.07,54.19,4.54-2.66,7.5-4.28,10.34-6.09,41.63-26.56,82.91-53.68,125.06-79.4,12.42-7.58,17.59-15.41,16.83-30.3-1.43-27.98-.41-56.09-.41-86.55Z"/>
  <path d="m853.73,744.76c0-1.46-.28-4.6.05-7.67.83-7.64,5.56-12,12.91-12.56,7.36-.57,13.56,3.05,14.56,10.47,2.12,15.76,3.47,31.65,4.27,47.54.41,8.11-5.25,12.96-12.94,13.58-8.41.68-14.08-4.19-15.19-12.47-1.66-12.34-2.38-24.8-3.66-38.87Z"/>
  <path d="m873.32,632.25c-.17,2.99.95,7.65-.85,9.62-3.85,4.19-8.9,9.06-14.04,9.85-7.05,1.08-12.52-4.31-13.34-11.75-1.62-14.77-2.92-29.61-3.52-44.45-.33-8.15,5.23-12.91,12.97-13.49,7.83-.59,13.64,3.61,14.77,11.57,1.79,12.66,2.68,25.44,4,38.66Z"/>
</svg>