<svg xmlns="http://www.w3.org/2000/svg" width="50.246" height="44.972" viewBox="0 0 50.246 44.972">
  <g id="Swimming_Pool-01" data-name="Swimming Pool-01" transform="translate(-0.487 -2.03)">
    <path id="Path_180" data-name="Path 180" d="M50.664,28.577c-.657.8-1.055.83-1.868.173a2.715,2.715,0,0,0-3.666.086,5.188,5.188,0,0,1-2.681,1.4,4.7,4.7,0,0,1-4.1-1.263,2.715,2.715,0,0,0-2.733-.778,3.684,3.684,0,0,0-1.3.726,4.773,4.773,0,0,1-6.745,0,2.784,2.784,0,0,0-3.96,0,4.756,4.756,0,0,1-6.745,0,2.715,2.715,0,0,0-3.909,0,4.912,4.912,0,0,1-6.918,0,2.715,2.715,0,0,0-3.8,0,1,1,0,0,1-1.5,0,1.02,1.02,0,0,1,.19-1.5,4.721,4.721,0,0,1,6.451,0,2.871,2.871,0,0,0,2.992.778,3.269,3.269,0,0,0,1.159-.726,4.739,4.739,0,0,1,6.589,0,2.923,2.923,0,0,0,1.539.83,1.885,1.885,0,0,0,0-.294V22.022l-.623-.156a5.015,5.015,0,0,1-2.093-1.245,2.767,2.767,0,0,0-3.96,0,4.756,4.756,0,0,1-6.71,0,2.8,2.8,0,0,0-3.943,0,.986.986,0,0,1-1.5,0,1.02,1.02,0,0,1,.225-1.47,4.773,4.773,0,0,1,6.451,0A4.116,4.116,0,0,0,8.949,20a2.663,2.663,0,0,0,2.594-.726,4.687,4.687,0,0,1,5.43-.865,13.091,13.091,0,0,1,1.28.9c.432.294.882.553,1.332.83l.121-.1v-9.72A8.232,8.232,0,0,1,34.943,5.938l.225.363.242-.329A8.232,8.232,0,0,1,50.577,9.051a.865.865,0,0,0,.086.225v2.058a1.418,1.418,0,0,1-1.366.64h-3.13c-1.626,0-1.729,0-1.729-1.729a2.023,2.023,0,0,0-1.384-1.885,1.972,1.972,0,0,0-2.542,1.989v8.993a.484.484,0,0,0,.45.571,2.957,2.957,0,0,0,2.819-.813,4.7,4.7,0,0,1,6.918.432v.692c-.605.813-1.038.865-1.851.208a2.767,2.767,0,0,0-3.7.086,4.7,4.7,0,0,1-2.4,1.332,18.472,18.472,0,0,1-2.231.121v5.5c0,.64,0,.692.692.778a2.975,2.975,0,0,0,2.611-.9,4.7,4.7,0,0,1,6.918.5ZM34.234,9.951V9.363a6.261,6.261,0,0,0-12.452,1q0,8.543,0,17.087v.484c.242-.19.4-.346.588-.484a7.523,7.523,0,0,1,1.245-.847c.432-.173.5-.415.5-.83V10.21a3.7,3.7,0,0,1,2.127-3.459,3.788,3.788,0,0,1,4.03.277A4.012,4.012,0,0,1,32,9.933Zm14.493,0v-.64a6.261,6.261,0,0,0-12.452,1.124V26l2.352.536V10.21a3.921,3.921,0,0,1,7.817-.156ZM34.234,11.974H31c-.761,0-1.09-.363-1.107-1.124v-.588A1.885,1.885,0,0,0,29.2,8.809,1.816,1.816,0,0,0,27.161,8.5a1.9,1.9,0,0,0-1.176,1.833v6.658a1.021,1.021,0,0,0,0,.225h8.249v-4.86a2.213,2.213,0,0,0,0-.38Zm-8.2,11.57V26.19a5.085,5.085,0,0,1,3.13,1.557,2.819,2.819,0,0,0,3.6,0l1.314-1a.415.415,0,0,0,.173-.259V23.6Zm8.2-4.272H26.019v2.248h8.215Z" transform="translate(0 0)" fill="#505050"/>
    <path id="Path_181" data-name="Path 181" d="M50.659,28.1c-.605.83-1.055.882-1.851.225a2.784,2.784,0,0,0-3.7.086,4.791,4.791,0,0,1-6.918,0,2.8,2.8,0,0,0-3.926,0,4.7,4.7,0,0,1-5.465.865,6.139,6.139,0,0,1-1.228-.882,2.819,2.819,0,0,0-4.012,0,4.721,4.721,0,0,1-6.624,0,2.819,2.819,0,0,0-4.151,0,4.773,4.773,0,0,1-6.572,0,2.767,2.767,0,0,0-4.03-.1.968.968,0,0,1-1.435,0,.986.986,0,0,1,.121-1.435,4.739,4.739,0,0,1,6.589,0,2.681,2.681,0,0,0,2.681.8,3.891,3.891,0,0,0,1.314-.709,4.773,4.773,0,0,1,6.814,0,2.784,2.784,0,0,0,4-.1,4.7,4.7,0,0,1,5.69-.674,4.479,4.479,0,0,1,.865.64,2.836,2.836,0,0,0,4.22,0,4.721,4.721,0,0,1,5.673-.605,6.624,6.624,0,0,1,.882.674,2.8,2.8,0,0,0,4.082,0,4.756,4.756,0,0,1,6.52-.1l.45.484Z" transform="translate(0.004 17.118)" fill="#505050"/>
    <path id="Path_182" data-name="Path 182" d="M38.835,23.14c-.553.83-1.072.9-1.833.259a2.784,2.784,0,0,0-3.822.156A4.791,4.791,0,0,1,29.341,24.9a4.358,4.358,0,0,1-2.715-1.211,2.957,2.957,0,0,0-4.306,0,4.548,4.548,0,0,1-4.739,1,1,1,0,1,1,.588-1.885,2.819,2.819,0,0,0,2.94-.674,4.756,4.756,0,0,1,6.676,0,2.819,2.819,0,0,0,4.185-.086,4.739,4.739,0,0,1,6.261-.138,5.984,5.984,0,0,1,.605.692Z" transform="translate(11.829 13.669)" fill="#505050"/>
    <path id="Path_183" data-name="Path 183" d="M9.529,24.949A4.393,4.393,0,0,1,6.3,23.686a2.905,2.905,0,0,0-4.133-.121.968.968,0,0,1-1.4,0,1,1,0,0,1,.1-1.453,4.773,4.773,0,0,1,6.451-.121,3.2,3.2,0,0,0,2.058.934,2.905,2.905,0,0,0,2.2-.865,4.652,4.652,0,0,1,3.8-1.3,4.41,4.41,0,0,1,2.75,1.245,2.871,2.871,0,0,0,3.148.726.968.968,0,0,1,1.3.588.951.951,0,0,1-.657,1.28,4.7,4.7,0,0,1-4.981-1,2.733,2.733,0,0,0-2.888-.674,3.891,3.891,0,0,0-1.263.8,4.808,4.808,0,0,1-3.251,1.228Z" transform="translate(0.008 13.641)" fill="#505050"/>
    <path id="Path_184" data-name="Path 184" d="M15.419,20.77a.951.951,0,0,1,.968.986.986.986,0,1,1-1.954,0,.951.951,0,0,1,.986-.986Z" transform="translate(10.167 13.669)" fill="#505050"/>
  </g>
</svg>
