<svg xmlns="http://www.w3.org/2000/svg" xmlns:xlink="http://www.w3.org/1999/xlink" width="450" height="450" viewBox="0 0 450 450">
  <defs>
    <clipPath id="clip-Artboard_1">
      <rect width="450" height="450"/>
    </clipPath>
  </defs>
  <g id="Artboard_1" data-name="Artboard – 1" clip-path="url(#clip-Artboard_1)">
    <rect width="450" height="450" fill="#fff"/>
    <g id="Swimming_Pool-01" data-name="Swimming Pool-01" transform="translate(65.666 89)">
      <path id="Path_180" data-name="Path 180" d="M318.716,170.39c-4.168,5.045-6.691,5.265-11.846,1.1a17.22,17.22,0,0,0-23.253.548,32.905,32.905,0,0,1-17,8.884,29.834,29.834,0,0,1-26-8.007,17.22,17.22,0,0,0-17.33-4.936,23.363,23.363,0,0,0-8.226,4.607,30.273,30.273,0,0,1-42.777,0,17.659,17.659,0,0,0-25.118,0,30.163,30.163,0,0,1-42.777,0,17.22,17.22,0,0,0-24.789,0,31.15,31.15,0,0,1-43.873,0,17.22,17.22,0,0,0-24.13,0,6.362,6.362,0,0,1-9.543,0,6.471,6.471,0,0,1,1.207-9.543,29.944,29.944,0,0,1,40.912,0,18.207,18.207,0,0,0,18.975,4.936A20.73,20.73,0,0,0,70.5,163.37a30.053,30.053,0,0,1,41.79,0,18.537,18.537,0,0,0,9.762,5.265,11.955,11.955,0,0,0,0-1.865V128.82l-3.949-.987a31.809,31.809,0,0,1-13.272-7.9,17.549,17.549,0,0,0-25.118,0,30.163,30.163,0,0,1-42.557,0,17.769,17.769,0,0,0-25.008,0,6.252,6.252,0,0,1-9.542,0,6.471,6.471,0,0,1,1.426-9.323,30.273,30.273,0,0,1,40.912,0,26.105,26.105,0,0,0,9.213,5.375,16.891,16.891,0,0,0,16.453-4.607,29.724,29.724,0,0,1,34.441-5.484,83.029,83.029,0,0,1,8.117,5.7c2.742,1.865,5.594,3.51,8.446,5.265l.768-.658V54.564a52.209,52.209,0,0,1,96.631-27.75l1.426,2.3,1.536-2.084a52.209,52.209,0,0,1,96.193,19.524,5.486,5.486,0,0,0,.548,1.426V61.035a8.994,8.994,0,0,1-8.665,4.058H290.2c-10.31,0-10.968,0-10.968-10.968a12.833,12.833,0,0,0-8.775-11.956,12.5,12.5,0,0,0-16.123,12.614v57.036a3.071,3.071,0,0,0,2.852,3.62,18.756,18.756,0,0,0,17.878-5.155,29.834,29.834,0,0,1,43.873,2.742v4.387c-3.839,5.155-6.581,5.484-11.736,1.316a17.549,17.549,0,0,0-23.472.548,29.834,29.834,0,0,1-15.246,8.446,117.145,117.145,0,0,1-14.149.768V163.37c0,4.058,0,4.387,4.387,4.936a18.866,18.866,0,0,0,16.562-5.7,29.834,29.834,0,0,1,43.873,3.181ZM214.516,52.26V48.531a39.706,39.706,0,0,0-78.972,6.362q0,54.184,0,108.368v3.071c1.536-1.207,2.523-2.194,3.729-3.071a47.713,47.713,0,0,1,7.9-5.375c2.742-1.1,3.181-2.632,3.181-5.265V53.906a23.472,23.472,0,0,1,13.491-21.937A24.021,24.021,0,0,1,189.4,33.724a25.447,25.447,0,0,1,10.968,18.427Zm91.915,0V48.2a39.706,39.706,0,0,0-78.972,7.129v98.715l14.917,3.4V53.906a24.865,24.865,0,0,1,49.577-.987ZM214.516,65.093H194.006c-4.826,0-6.91-2.3-7.02-7.129V54.235a11.955,11.955,0,0,0-4.387-9.213,11.517,11.517,0,0,0-12.943-1.974A12.065,12.065,0,0,0,162.2,54.674V96.9a6.472,6.472,0,0,0,0,1.426h52.319V67.507a14.035,14.035,0,0,0,0-2.413Zm-51.99,73.378v16.782a32.247,32.247,0,0,1,19.853,9.872,17.878,17.878,0,0,0,22.814,0l8.336-6.362a2.632,2.632,0,0,0,1.1-1.645V138.8Zm51.99-27.092h-52.1v14.259h52.1Z" transform="translate(-0.487 -2.03)" fill="#505050"/>
      <path id="Path_181" data-name="Path 181" d="M318.655,41.979c-3.839,5.265-6.691,5.594-11.736,1.426a17.659,17.659,0,0,0-23.472.548,30.382,30.382,0,0,1-43.873,0,17.769,17.769,0,0,0-24.9,0,29.834,29.834,0,0,1-34.66,5.484,38.937,38.937,0,0,1-7.788-5.594,17.879,17.879,0,0,0-25.447,0,29.944,29.944,0,0,1-42.009,0,17.878,17.878,0,0,0-26.324,0,30.273,30.273,0,0,1-41.68,0,17.549,17.549,0,0,0-25.556-.658,6.142,6.142,0,0,1-9.1,0,6.252,6.252,0,0,1,.768-9.1,30.053,30.053,0,0,1,41.79,0,17,17,0,0,0,17,5.045A24.678,24.678,0,0,0,70,34.63a30.273,30.273,0,0,1,43.215,0,17.659,17.659,0,0,0,25.337-.658,29.834,29.834,0,0,1,36.086-4.278,28.409,28.409,0,0,1,5.484,4.058,17.988,17.988,0,0,0,26.763,0,29.944,29.944,0,0,1,35.976-3.839,42.01,42.01,0,0,1,5.594,4.278,17.769,17.769,0,0,0,25.885,0,30.163,30.163,0,0,1,41.351-.658l2.852,3.071Z" transform="translate(-0.426 231.896)" fill="#505050"/>
      <path id="Path_182" data-name="Path 182" d="M157.072,35.807c-3.51,5.265-6.8,5.7-11.626,1.645a17.659,17.659,0,0,0-24.24.987,30.382,30.382,0,0,1-24.35,8.555,27.64,27.64,0,0,1-17.22-7.678,18.756,18.756,0,0,0-27.311,0,28.847,28.847,0,0,1-30.053,6.362A6.362,6.362,0,1,1,26,33.723a17.878,17.878,0,0,0,18.646-4.278,30.163,30.163,0,0,1,42.338,0,17.879,17.879,0,0,0,26.544-.548,30.053,30.053,0,0,1,39.705-.878,37.954,37.954,0,0,1,3.839,4.387Z" transform="translate(161.157 184.762)" fill="#505050"/>
      <path id="Path_183" data-name="Path 183" d="M57.776,47.481a27.86,27.86,0,0,1-20.511-8.007,18.427,18.427,0,0,0-26.214-.768,6.142,6.142,0,0,1-8.884,0,6.362,6.362,0,0,1,.658-9.213,30.273,30.273,0,0,1,40.912-.768,20.291,20.291,0,0,0,13.052,5.923,18.427,18.427,0,0,0,13.93-5.484,29.5,29.5,0,0,1,24.13-8.226,27.969,27.969,0,0,1,17.44,7.9,18.208,18.208,0,0,0,19.962,4.607,6.142,6.142,0,0,1,8.226,3.729,6.033,6.033,0,0,1-4.168,8.117,29.834,29.834,0,0,1-31.589-6.362A17.33,17.33,0,0,0,86.4,34.648,24.68,24.68,0,0,0,78.4,39.693a30.492,30.492,0,0,1-20.621,7.788Z" transform="translate(-0.375 184.386)" fill="#505050"/>
      <path id="Path_184" data-name="Path 184" d="M20.732,20.774a6.033,6.033,0,0,1,6.142,6.252,6.252,6.252,0,1,1-12.394,0,6.033,6.033,0,0,1,6.252-6.252Z" transform="translate(138.456 184.768)" fill="#505050"/>
    </g>
  </g>
</svg>
