<?xml version="1.0" encoding="UTF-8"?>
<svg id="Layer_1" data-name="Layer 1" xmlns="http://www.w3.org/2000/svg" viewBox="0 0 1080 1080">
  <path d="m731.75,72.41c15.98,3.71,31.43,8.58,44.85,18.57,26.18,19.48,36.79,46.52,40.68,78,10.18,82.33,21.44,164.53,32.13,246.8,6.08,46.84,13.67,93.58,17.41,140.61,6.06,76.21-12.83,146-61.62,206.18-15.81,19.5-35.98,34.07-58.73,46.73,9.27,14.18,18.29,27.97,27.31,41.76,1.66,2.53,3.46,4.98,4.98,7.6,4.35,7.48,3.15,15.13-2.94,19.42-6.37,4.5-14.74,2.94-19.73-4.41-10.54-15.54-20.89-31.21-30.94-47.07-2.94-4.65-5.52-5.86-10.98-3.92-8.71,3.09-17.87,4.94-27.49,7.49,1.55,2.69,2.76,5.05,4.21,7.26,28.78,44.14,57.65,88.22,86.3,132.45,2.94,4.54,5.96,6.68,11.58,6.43,10.86-.49,21.75-.14,33.98-.14-1.97-3.37-3.32-5.89-4.87-8.27-8.6-13.19-17.45-26.23-25.79-39.58-4.28-6.85-2.56-14.44,3.59-18.47,6.54-4.29,13.56-3.81,17.85,2.41,13.58,19.68,27.19,39.43,39.21,60.07,7.78,13.36-2.74,30.26-18.43,30.86-19.07.73-38.25,1.07-57.24-.33-6.16-.46-13.23-5.81-17.5-10.92-7.52-9-13.45-19.39-19.57-29.48-2.85-4.71-6.16-6.36-11.68-6.35-126.39.16-252.79.07-379.18.37-3.64,0-8.45,2.76-10.68,5.75-7.06,9.44-13.22,19.56-19.59,29.51-5.19,8.11-12.42,11.9-22.08,11.77-15.15-.21-30.32-.3-45.46.03-10.61.23-20-1.45-25.71-11.62-6.02-10.7-1.45-19.59,4.5-28.59,32.07-48.5,63.96-97.13,95.9-145.71,1.66-2.53,3.26-5.09,4.4-6.87-14.83-11.37-30.34-21.54-43.81-33.93-38.47-35.38-57.88-81.34-69.51-131.13-2.03-8.67,2.37-15.24,9.68-16.89,8.53-1.93,14.9,2.67,17.31,12.97,7.32,31.22,18.45,60.98,37.06,87.21,34.72,48.94,82.57,75.2,142.59,76.08,75.46,1.1,150.96,1.23,226.41.08,79.77-1.22,134.65-41.17,166.93-113.18,23.64-52.73,28.65-107.77,19.4-164.47-2.09-12.84-3.5-25.79-5.43-40.28-2.19,2.29-3.84,3.67-5.06,5.35-18.18,24.99-42.39,42.07-70.62,53.83-10.18,4.24-18.46,1.72-21.43-6.25-3-8.04,1.12-13.73,10.68-19.01,14.49-8.01,29.94-15.4,42.09-26.28,26.4-23.62,40.57-51.43,34.43-89.95-12.92-81-22.14-162.59-32.86-243.94-4.68-35.57-32.84-61.1-68.82-61.16-120.33-.21-240.66-.21-361,0-36.04.06-64.17,25.42-68.85,61.1-11.63,88.56-23.33,177.11-34.55,265.73-.86,6.83.52,14.61,3.06,21.09,13.27,33.91,37.8,57.09,70.77,71.78,1.93.86,3.97,1.48,5.89,2.39,8.87,4.18,12.25,11.53,8.83,19.05-3.17,6.97-10.79,9.54-19.35,6.12-28.13-11.21-52.25-27.92-70.7-52.26-1.75-2.31-3.58-4.56-7.31-9.29-3.25,30.85-6.22,58.97-9.14,87.09-.25,2.4.08,4.87-.2,7.26-.9,7.8-6.6,12.91-13.96,12.71-7.31-.2-13.4-5.61-12.99-13.5.94-18.12,2.12-36.28,4.41-54.28,9.12-71.79,18.71-143.52,28.11-215.27,6.77-51.64,13.13-103.33,20.39-154.9,5.69-40.42,36.39-72.05,76.39-80.31,2.33-.48,4.61-1.25,6.91-1.88,128.53,0,257.05,0,385.58,0Zm-14,856.31c-6.95-10.72-12.76-20.25-19.26-29.27-1.55-2.16-5.43-3.73-8.25-3.73-100.87-.19-201.74-.17-302.61-.06-2.46,0-6.01.66-7.19,2.33-6.89,9.71-13.23,19.81-20.37,30.73h357.69Zm-317.65-61.25h277.63c-7.38-11.36-13.91-21.8-20.94-31.89-1.21-1.73-4.55-2.79-6.91-2.8-73.85-.14-147.7-.15-221.56.02-2.57,0-6.16,1.34-7.53,3.28-6.96,9.85-13.34,20.1-20.7,31.39Zm-8.78-37.26c-9.37-2.49-17.8-4.02-25.65-7.03-6.63-2.54-10.05-1.23-13.92,4.73-30.35,46.73-61.07,93.23-91.65,139.81-1.58,2.4-2.94,4.95-5.02,8.47,11.79,0,22.34-.33,32.85.13,6.09.26,9.71-1.66,13.12-6.95,28.23-43.77,56.83-87.31,85.29-130.94,1.62-2.48,3.07-5.07,4.98-8.22Z"/>
  <path d="m544.36,446.45c-79.09-2.34-149.79-16.04-218.17-41.47-22.39-8.33-27.58-16.51-25.28-39.8,4.7-47.62,9.7-95.2,14.87-142.77,2.2-20.2,12.79-29.33,33.37-29.34,126.39-.06,252.77-.05,379.16,0,21.45,0,31.71,9.31,33.99,30.72,4.96,46.68,9.85,93.36,14.64,140.06,2.46,24-2.39,32.24-24.83,41.04-47.9,18.8-97.86,29.58-148.66,36.45-21.57,2.92-43.41,3.81-59.1,5.11Zm-20.29-27.12c.7-3.25,1.04-4.12,1.04-4.98.06-62.39.02-124.78.21-187.16.02-5.91-2.56-6.96-7.68-6.94-55.74.12-111.47.13-167.21-.01-5.41-.01-7.31,1.87-7.85,7.22-4.65,46.07-9.38,92.14-14.54,138.16-.9,8.01,1.3,11.64,8.99,14.53,41.56,15.6,84.52,25.47,128.23,32.21,19.34,2.98,38.89,4.66,58.81,6.99Zm29.09-1.4c3.8,0,7.06.21,10.3-.03,60.08-4.45,118.57-16.45,175.19-37.14,12.5-4.57,12.17-4.78,10.72-18.27-4.77-44.23-9.54-88.47-13.82-132.75-.71-7.34-2.96-9.62-10.36-9.58-54.22.29-108.44.16-162.66.16-2.95,0-5.89,0-9.36,0v197.62Z"/>
  <path d="m538.98,156.66c-52.12,0-104.24,0-156.37-.01-3.33,0-6.69.11-9.98-.29-7.31-.9-11.52-5.23-11.93-12.56-.4-7.36,3.41-12.13,10.54-13.78,3.2-.74,6.61-.75,9.92-.75,105.15-.04,210.31-.03,315.46-.01,3.02,0,6.12-.1,9.05.49,7.5,1.5,11.89,6.12,11.5,13.96-.39,7.79-5.02,12.38-12.74,12.7-10.59.45-21.21.24-31.81.24-44.55.02-89.09,0-133.64,0Z"/>
  <path d="m435.54,651.43c-.09,32.5-26.82,59.12-59.13,58.89-32.3-.23-59.06-27.22-58.88-59.4.18-32.43,26.81-58.7,59.4-58.61,32.73.09,58.7,26.29,58.61,59.12Zm-59.13-31.8c-17.45.09-31.75,14.51-31.56,31.81.19,17.23,14.95,31.75,32.06,31.57,17.38-.19,31.4-14.56,31.3-32.08-.1-17.65-14.07-31.39-31.81-31.3Z"/>
  <path d="m642.35,651.05c.05-32.75,26.18-58.78,58.97-58.74,32.52.04,59.12,26.63,59.01,58.99-.1,32.28-27.02,59.08-59.26,59.01-32.38-.07-58.78-26.71-58.73-59.27Zm27.31.44c.13,17.46,14.57,31.76,31.84,31.53,17.23-.23,31.7-15,31.48-32.13-.23-17.49-14.47-31.36-32.09-31.25-17.64.11-31.36,14.11-31.23,31.86Z"/>
</svg>