<svg xmlns="http://www.w3.org/2000/svg" xmlns:xlink="http://www.w3.org/1999/xlink" width="450" height="450" viewBox="0 0 450 450">
  <defs>
    <clipPath id="clip-path">
      <rect id="Rectangle_7029" data-name="Rectangle 7029" width="186.475" height="336.834" fill="none" stroke="#505050" stroke-width="10"/>
    </clipPath>
    <clipPath id="clip-Artboard_2">
      <rect width="450" height="450"/>
    </clipPath>
  </defs>
  <g id="Artboard_2" data-name="Artboard – 2" clip-path="url(#clip-Artboard_2)">
    <rect width="450" height="450" fill="#fff"/>
    <g id="Group_39308" data-name="Group 39308" transform="translate(132 57)">
      <g id="Group_39247" data-name="Group 39247" clip-path="url(#clip-path)">
        <path id="Path_207" data-name="Path 207" d="M91.96,88C77.6,88,51.73,97.261,44.665,100.814S33.023,107.4,27.431,115c-4.706,6.4-12.636,16.8-18.01,28.2a14.644,14.644,0,0,0,15.015,20.777l60.2-6.419V135.6" transform="translate(-0.678 -7.453)" fill="none" stroke="#505050" stroke-linecap="round" stroke-linejoin="round" stroke-width="10"/>
        <path id="Path_208" data-name="Path 208" d="M99.729,88c14.36,0,40.231,9.261,47.295,12.814S158.667,107.4,164.258,115c4.706,6.4,12.636,16.8,18.009,28.2a14.643,14.643,0,0,1-15.014,20.777l-52.161-5.561" transform="translate(-8.446 -7.453)" fill="none" stroke="#505050" stroke-linecap="round" stroke-linejoin="round" stroke-width="10"/>
        <line id="Line_63" data-name="Line 63" y1="176.277" transform="translate(54.671 153.234)" fill="none" stroke="#505050" stroke-linecap="round" stroke-linejoin="round" stroke-width="10"/>
        <path id="Path_209" data-name="Path 209" d="M123.729,285.11,175.9,273.668c8.81-2.288,13.73-9.267,13.73-16.018V247.239c0-6.519-2.784-12.281-13.5-20.48-7.41-5.67-37.757-29.519-37.757-29.519V167.412" transform="translate(-10.479 -14.178)" fill="none" stroke="#505050" stroke-linecap="round" stroke-linejoin="round" stroke-width="10"/>
        <line id="Line_64" data-name="Line 64" y1="109.837" x2="14.645" transform="translate(83.96 219.674)" fill="none" stroke="#505050" stroke-linecap="round" stroke-linejoin="round" stroke-width="10"/>
        <path id="Path_210" data-name="Path 210" d="M97.019,81.225c16.767,0,29.29-14.049,29.29-31.38V39.38C126.309,22.05,113.786,8,97.019,8s-29.29,14.05-29.29,31.38V49.845C67.729,67.176,80.251,81.225,97.019,81.225Z" transform="translate(-5.736 -0.678)" fill="none" stroke="#505050" stroke-miterlimit="10" stroke-width="10"/>
        <line id="Line_65" data-name="Line 65" x1="36.612" y1="18.306" transform="translate(98.605 219.674)" fill="none" stroke="#505050" stroke-linecap="round" stroke-linejoin="round" stroke-width="10"/>
      </g>
    </g>
  </g>
</svg>
